<?xml version="1.0" encoding="UTF-8"?>
<svg xmlns="http://www.w3.org/2000/svg" version="1.1" viewBox="0 0 1072.6 607.5">
  <!-- Generator: Adobe Illustrator 29.7.1, SVG Export Plug-In . SVG Version: 2.1.1 Build 8)  -->
  <defs>
    <style>
      .st0 {
        stroke: #eee0d1;
        stroke-miterlimit: 10;
        stroke-width: 2px;
      }

      .st0, .st1 {
        fill: #fff;
      }

      .st2 {
        fill: #00615b;
      }
    </style>
  </defs>
  <g id="Layer_1">
    <rect class="st2" width="1083.9" height="607.5"/>
    <g>
      <g>
        <path class="st1" d="M481.4,211.2c-7-3-12.6-7.6-16.8-13.9-4.2-6.3-6.4-14.2-6.4-23.8s1.4-15.5,4.1-24.8h18.7c-2.2,8.3-3.3,15.4-3.3,21.4,0,17.3,8.9,25.9,26.7,25.9s15.5-2.4,19.7-7.1c4.2-4.8,6.4-12.2,6.4-22.2v-40.6h20v40.6c0,15.5-4,27.6-12,36.1-8,8.5-19.4,12.8-34,12.8s-16.1-1.5-23-4.4ZM496.5,129.6c-2.2-2.2-3.3-4.9-3.3-7.9s1.1-5.7,3.3-7.9c2.2-2.2,4.9-3.3,7.9-3.3s5.7,1.1,7.9,3.3c2.2,2.2,3.3,4.9,3.3,7.9s-1.1,5.7-3.3,7.9-4.9,3.3-7.9,3.3-5.7-1.1-7.9-3.3Z"/>
        <path class="st1" d="M564.6,85.9h20v97.1h-20v-97.1Z"/>
        <path class="st1" d="M683.7,183h-14c-1.6,10.8-5.7,18.9-12.3,24.4-6.6,5.5-15.6,8.3-27,8.3s-11.5-.6-17.9-1.7v-19.3c5.7.8,10.7,1.2,15,1.2,6.1,0,10.9-1,14.5-3.1,3.6-2.1,6-5.3,7.3-9.7h-5.6c-10.4,0-19-1.7-25.7-5-6.8-3.3-11.7-7.7-14.8-13-3.1-5.4-4.6-11.3-4.6-17.6s1.6-12.4,4.8-18c3.2-5.6,8.2-10.1,15-13.5,6.8-3.4,15.4-5.2,25.7-5.2h26.3v52.7h13.4v19.6ZM624,158.8c4.1,3.1,10.7,4.6,20,4.6h6.6v-32.7h-6.9c-9.2,0-15.8,1.6-19.8,4.7-4,3.1-6,7-6,11.7s2,8.6,6.1,11.6Z"/>
        <path class="st1" d="M700.2,119.5h20v63.5h-36.5c-3,0-5.5-1-7.5-2.9-2-1.9-3-4.3-3-7.1s1-5.1,2.9-6.9c1.9-1.8,4.5-2.6,7.7-2.6h16.5v-43.9ZM688.8,213.9c-2.2-2.2-3.3-4.9-3.3-7.9s1.1-5.7,3.3-7.9c2.2-2.2,4.9-3.3,7.9-3.3s5.7,1.1,7.9,3.3,3.3,4.9,3.3,7.9-1.1,5.7-3.3,7.9c-2.2,2.2-4.9,3.3-7.9,3.3s-5.7-1.1-7.9-3.3ZM715.2,213.9c-2.2-2.2-3.3-4.9-3.3-7.9s1.1-5.7,3.3-7.9c2.2-2.2,4.9-3.3,7.9-3.3s5.7,1.1,7.9,3.3c2.2,2.2,3.3,4.9,3.3,7.9s-1.1,5.7-3.3,7.9c-2.2,2.2-4.9,3.3-7.9,3.3s-5.7-1.1-7.9-3.3Z"/>
        <path class="st1" d="M744,163.4h47v-7.5c0-6.4-1-11.5-3-15.2-2-3.7-5.2-6.3-9.5-7.9-4.3-1.6-10.1-2.4-17.3-2.4h-9.7v-20h9.9c15.4,0,27.6,3.9,36.4,11.6,8.8,7.8,13.2,19.1,13.2,33.9v27.1h-67v-19.6Z"/>
      </g>
      <g>
        <path class="st1" d="M298.9,351.8c2.7,0,4.7-.8,6-2.3,1.2-1.5,1.9-4.1,1.9-7.8v-63.5h20v63.5c0,9.4-2.1,16.6-6.4,21.4-4.2,4.9-10.3,7.3-18.1,7.3s-10.8-1-16.7-2.9l3.8-17.2c4.1,1,7.2,1.5,9.5,1.5Z"/>
        <path class="st1" d="M491.7,322.1v19.6h-151v-97.1h20v77.6h131Z"/>
        <path class="st1" d="M582.4,322.1v19.6c-13,0-22.3-3.3-27.9-9.9-6.6,6.6-16.9,9.9-30.7,9.9h-32.4c-3.1,0-5.5-1-7.3-2.9-1.8-1.9-2.6-4.2-2.6-6.9s.9-4.9,2.6-6.9c1.8-1.9,4.2-2.9,7.3-2.9h32.4c4.9,0,8.6-.4,11.2-1.1,2.6-.7,4.5-1.9,5.6-3.5,1.1-1.6,1.7-4,1.7-7.1s-1.7-7.3-5.2-10.2c-3.5-2.9-8.4-5.2-14.8-6.7-6.4-1.6-13.9-2.4-22.4-2.4l-4-24.9c8.9-6.7,18.4-12,28.5-15.9,10.1-3.9,22.4-7,36.9-9.3l2.9,19.6c-7.9,1-15.8,2.7-23.6,5.2-7.8,2.5-14.7,5.4-20.7,8.7,13.1,1.9,23.4,5.8,30.9,12,7.5,6.1,11.3,13.8,11.6,23.1,1.2,8.4,7.9,12.6,20.1,12.6Z"/>
        <path class="st1" d="M639.3,322.1v19.6c-14,0-23.5-3.9-28.5-11.6-3.2,3.7-7.2,6.6-12,8.6-4.8,2-10.3,3-16.5,3s-5.5-1-7.5-2.9c-2-1.9-3-4.3-3-7.1s1-5.1,2.9-6.9c1.9-1.8,4.5-2.6,7.7-2.6,4.9,0,8.8-1.4,11.9-4.2,3.1-2.8,4.6-7.1,4.6-12.7v-27h20v27c0,5,1.4,9,4.2,12,3.3,3.3,8.6,4.9,16.1,4.9ZM587.8,263c-2.2-2.2-3.3-4.9-3.3-7.9s1.1-5.7,3.3-7.9c2.2-2.2,4.9-3.3,7.9-3.3s5.7,1.1,7.9,3.3c2.2,2.2,3.3,4.9,3.3,7.9s-1.1,5.7-3.3,7.9c-2.2,2.2-4.9,3.3-7.9,3.3s-5.7-1.1-7.9-3.3ZM614.2,263c-2.2-2.2-3.3-4.9-3.3-7.9s1.1-5.7,3.3-7.9c2.2-2.2,4.9-3.3,7.9-3.3s5.7,1.1,7.9,3.3c2.2,2.2,3.3,4.9,3.3,7.9s-1.1,5.7-3.3,7.9c-2.2,2.2-4.9,3.3-7.9,3.3s-5.7-1.1-7.9-3.3Z"/>
        <path class="st1" d="M655.8,278.2h20v63.5h-36.5c-3,0-5.5-1-7.5-2.9-2-1.9-3-4.3-3-7.1s1-5.1,2.9-6.9c1.9-1.8,4.5-2.6,7.7-2.6h16.5v-43.9ZM651.7,372.7c-2.2-2.2-3.3-4.9-3.3-7.9s1.1-5.7,3.3-7.9c2.2-2.2,4.9-3.3,7.9-3.3s5.7,1.1,7.9,3.3c2.2,2.2,3.3,4.9,3.3,7.9s-1.1,5.7-3.3,7.9c-2.2,2.2-4.9,3.3-7.9,3.3s-5.7-1.1-7.9-3.3Z"/>
        <path class="st1" d="M777,244.6v97.1h-87.1v-19.6h28.9l-19.7-64.7h20.6l19.7,64.7h17.6v-77.6h20Z"/>
        <path class="st1" d="M791,244.6h20v97.1h-20v-97.1Z"/>
      </g>
      <g>
        <path class="st1" d="M350.9,151.5c3.3,0,5.5,2.3,5.5,3.9,0,.7-.2,1-.4,1.7,1.2,1.6,1.1,7.9.1,9.2.5,1.1,2.9,2.3,3.4,1.2,2.9-6.4,4.9-12.5,6.5-19.5,0-.3.3-.6.6-.7,1.6-1.1,3.7.4,3.3,2.3-.2,1-.5,2.2-.8,3.5,0,0-.9,4.5-1.3,6.7-1.6,9.2-4.9,18.1-5,18.3h0c-.9,3.6-1.5,7.7-1.7,11.9-.2,3.5-.2,9.5.2,12.8.4,4,1.1,8.7,1.6,12.1.4,2.7,4,1.4,4,1.4-3,1.7-10.9.3-16,.3-5.1,0-11.5,1.7-14.5,0,0,0,2.1.8,2.5-1.9.5-3.4,1.2-8,1.6-11.9.4-3.3.4-9.3.2-12.8-.2-4.2-.7-8.4-1.7-11.9h0c0-.2-3.5-9.1-5-18.3-.4-2.2-1.3-6.7-1.3-6.7-.3-1.3-.5-2.5-.8-3.5-.4-1.9,1.7-3.4,3.3-2.3.3.2.5.4.6.7,1.6,6.9,3.6,13.1,6.5,19.5.5,1.1,2.9,0,3.4-1.2-.9-1.4-1-7.6.1-9.2-.2-.7-.4-1-.4-1.7,0-1.6,2.2-3.9,5.5-3.9Z"/>
        <path class="st1" d="M373.1,233.6h-44.9c-1.6,0-2.9-1.3-2.9-2.9v-12.4c0-1.6,1.3-2.9,2.9-2.9h44.9c1.6,0,2.9,1.3,2.9,2.9v12.4c0,1.6-1.3,2.9-2.9,2.9ZM331.2,227.8h39v-6.5h-39v6.5Z"/>
        <path class="st1" d="M373.1,246.5h-44.9c-1.6,0-2.9-1.3-2.9-2.9v-12.9c0-1.6,1.3-2.9,2.9-2.9h44.9c1.6,0,2.9,1.3,2.9,2.9v12.9c0,1.6-1.3,2.9-2.9,2.9ZM331.2,240.7h39v-7.1h-39v7.1Z"/>
        <path class="st1" d="M369.1,221.2h-36.8c-1.6,0-2.9-1.3-2.9-2.9v-10.5c-17.3-8.2-28.4-25.6-28.4-44.9,0-27.4,22.3-49.7,49.7-49.7s49.7,22.3,49.7,49.7-11.1,36.6-28.3,44.9v10.6c0,1.6-1.3,2.9-2.9,2.9ZM335.2,215.4h31v-9.2c-.1-1.3.6-2.5,1.7-3,16.2-6.9,26.6-22.7,26.6-40.3s-19.7-43.8-43.8-43.8-43.8,19.7-43.8,43.8,10.4,33.4,26.6,40.3c1.2.5,1.9,1.7,1.7,3v9.2Z"/>
        <g>
          <g>
            <path class="st1" d="M290.1,167h-14.3c-1.6,0-2.9-1.3-2.9-2.9s1.3-2.9,2.9-2.9h14.3c1.6,0,2.9,1.3,2.9,2.9s-1.3,2.9-2.9,2.9Z"/>
            <path class="st1" d="M426.7,167h-14.3c-1.6,0-2.9-1.3-2.9-2.9s1.3-2.9,2.9-2.9h14.3c1.6,0,2.9,1.3,2.9,2.9s-1.3,2.9-2.9,2.9Z"/>
          </g>
          <g>
            <path class="st1" d="M297.9,220.3c-.7,0-1.5-.3-2.1-.9-1.1-1.1-1.1-3,0-4.1l10.1-10.1c1.1-1.1,3-1.1,4.1,0,1.1,1.1,1.1,3,0,4.1l-10.1,10.1c-.6.6-1.3.9-2.1.9Z"/>
            <path class="st1" d="M394.5,123.7c-.7,0-1.5-.3-2.1-.9-1.1-1.1-1.1-3,0-4.1l10.1-10.1c1.1-1.1,3-1.1,4.1,0,1.1,1.1,1.1,3,0,4.1l-10.1,10.1c-.6.6-1.3.9-2.1.9Z"/>
          </g>
          <path class="st1" d="M351.2,105.8c-1.6,0-2.9-1.3-2.9-2.9v-14.3c0-1.6,1.3-2.9,2.9-2.9s2.9,1.3,2.9,2.9v14.3c0,1.6-1.3,2.9-2.9,2.9Z"/>
          <g>
            <path class="st1" d="M404.6,220.3c-.7,0-1.5-.3-2.1-.9l-10.1-10.1c-1.1-1.1-1.1-3,0-4.1,1.1-1.1,3-1.1,4.1,0l10.1,10.1c1.1,1.1,1.1,3,0,4.1-.6.6-1.3.9-2.1.9Z"/>
            <path class="st1" d="M308,123.7c-.7,0-1.5-.3-2.1-.9l-10.1-10.1c-1.1-1.1-1.1-3,0-4.1,1.1-1.1,3-1.1,4.1,0l10.1,10.1c1.1,1.1,1.1,3,0,4.1-.6.6-1.3.9-2.1.9Z"/>
          </g>
        </g>
      </g>
    </g>
  </g>
  <g id="V1">
    <g>
      <line class="st0" x1="575.6" y1="463" x2="575.6" y2="542.9"/>
      <g>
        <g>
          <path class="st1" d="M327.7,507.3c2.1,0,3.5,1.5,3.5,2.5s-.1.6-.2,1.1c.7,1.1.7,5,0,5.9.3.7,1.8,1.5,2.1.7,1.9-4.1,3.1-8,4.2-12.4.2-1.1,2.9-1,2.9-1,0,0-.4,1.8-.9,4.2,0,0-.6,2.9-.8,4.3-1,5.9-3.2,11.5-3.2,11.7h0c-.6,2.2-.9,4.9-1.1,7.6-.1,2.2-.1,6.1.1,8.2.5,4.6,1.5,10.6,1.5,10.6-1.9,1.1-4.9-1.8-8.1-1.8s-6.2,2.8-8.1,1.8c0,0,1-6,1.5-10.6.2-2.1.2-5.9.1-8.2-.1-2.7-.5-5.3-1.1-7.6h0c0-.1-2.2-5.8-3.2-11.7-.2-1.4-.8-4.3-.8-4.3-.5-2.3-.9-4.2-.9-4.2,0,0,2.6-.1,2.9,1,1,4.4,2.3,8.3,4.2,12.4.3.7,1.8,0,2.1-.7-.6-.9-.6-4.9,0-5.9-.1-.4-.2-.6-.2-1.1,0-1,1.4-2.5,3.4-2.5Z"/>
          <g>
            <path class="st1" d="M316.9,489.3s1.4-.4,1.9-2.1c.3-1.3-.5-1.7-.5-1.7-.6,1.4-2.4,1-2.6-.2-.2-1,.8-2.9,3-2,2.2.9,2.2,3.3,1,4.7-1.3,1.5-2.8,1.3-2.8,1.3M314.9,486.5s-1.2.4-2.3-.9c-.8-.9-.9-2-.7-2.8,0-.3-.3-.4-.4-.1-1,2.2-.6,4.9,1.1,6.5,2.3,2.1,5.7,2,7.6-.2,1.9-2.2,1.4-5-.4-6.3-1.8-1.2-3.9-.8-4.9.9-.9,1.7,0,3,0,3"/>
            <path class="st1" d="M345.7,495.8s0,1.5,1.6,2.3c1.1.6,1.7,0,1.7,0-1.2-.9-.3-2.6.9-2.4,1,.1,2.6,1.5,1.1,3.4-1.5,1.9-3.8,1.2-4.8-.2-1.1-1.7-.5-3.1-.5-3.1M348.9,494.6s0-1.3,1.5-2c1.1-.5,2.1-.3,2.9,0,.2.1.4-.2.2-.4-1.9-1.5-4.6-1.8-6.5-.6-2.7,1.7-3.4,4.9-1.8,7.4,1.6,2.4,4.5,2.6,6.2,1.2,1.6-1.4,1.8-3.6.3-4.9-1.4-1.3-2.8-.7-2.8-.7"/>
            <path class="st1" d="M365.9,483.1s-1.7-.6-2.2-2.9c-.4-2,.7-4.5,3.6-4.3,2.7.2,2.8,2.7,2,3.6-.8,1.1-2.9.5-2.8-1.2,0,0-1.1,0-1.4,1.5-.5,2.1.8,3.3.8,3.3M369.5,481.2s1.6-.7,1.6-3c0-2.3-2-3.9-4.5-3.6-2.5.3-4.6,2.9-3.8,6.3.8,3.3,4.2,5.3,7.7,4.3,2.7-.7,4.6-3.5,4.7-6.4,0-.3-.4-.3-.4,0-.3,1-.9,2.2-2.4,2.9-1.7.7-2.8-.3-2.8-.3"/>
            <path class="st1" d="M286.1,484.1s1.4-.4,1.9-2.1c.3-1.2-.4-1.7-.4-1.7-.6,1.4-2.4.9-2.6-.3-.1-1,.9-2.8,3-1.9,2.2,1,2.1,3.4.9,4.7-1.3,1.5-2.8,1.2-2.8,1.2M284.3,481.3s-1.2.3-2.2-1c-.7-1-.8-2-.6-2.9,0-.3-.3-.4-.4-.1-1,2.1-.7,4.9,1,6.5,2.3,2.2,5.6,2.2,7.6,0,1.9-2.1,1.5-5-.3-6.3-1.8-1.3-3.9-.9-4.9.8-1,1.7-.1,2.9-.1,2.9"/>
            <path class="st1" d="M342.4,451.8s1.7.1,2.9-1.6c.9-1.3.1-2,.1-2-1.2,1.3-3,.1-2.7-1.2.2-1.2,2-2.8,4.1-1,2.1,1.9,1.1,4.5-.7,5.6-2,1.1-3.6.3-3.6.3M341.4,447.8s-1.5,0-2.1-1.9c-.5-1.5,0-2.8.5-3.7.1-.2-.1-.5-.3-.3-2.1,2-2.9,5.3-1.6,7.8,1.7,3.3,5.4,4.5,8.4,2.8,3-1.7,3.5-5,2-7s-4-2.5-5.7-.9c-1.8,1.5-1.2,3.2-1.2,3.2"/>
          </g>
          <g>
            <path class="st1" d="M330,493.4s-.9-1.2-2.7-1c-1.3.1-1.4,1.1-1.4,1.1,1.5,0,1.8,1.9.7,2.5-.9.5-3,.2-2.9-2.1,0-2.4,2.3-3.2,4-2.6,1.9.7,2.2,2.2,2.2,2.2M328,496.2s.8,1,0,2.5c-.6,1.1-1.5,1.5-2.4,1.7-.3,0-.2.4,0,.4,2.4.1,4.8-1.2,5.7-3.3,1.2-3-.1-6-2.9-7-2.7-1-5.2.5-5.7,2.6-.5,2.1.6,4,2.6,4.2,2,.2,2.8-1.1,2.8-1.1"/>
            <path class="st1" d="M319.3,464.2s-1.4-1.1-1.1-3.5c.3-2.1,2.3-4,4.8-2.8,2.5,1.2,1.7,3.5.6,4.1-1.2.8-2.9-.5-2.2-2,0,0-1-.4-1.8.9-1.2,1.7-.4,3.3-.4,3.3M323.3,463.7s1.8-.1,2.5-2.3c.7-2.2-.5-4.3-3-4.9s-5.3,1.2-5.8,4.6c-.4,3.4,2.1,6.4,5.8,6.7,2.8.3,5.6-1.7,6.6-4.4.1-.2-.2-.4-.4-.2-.6.9-1.6,1.8-3.2,1.9-2,.1-2.6-1.3-2.6-1.3"/>
            <path class="st1" d="M292.4,470.1s-1,1.1-.5,2.8c.3,1.2,1.3,1.2,1.3,1.2-.2-1.5,1.6-2,2.3-1.1.6.8.7,2.9-1.6,3.2-2.4.3-3.5-1.8-3.2-3.5.4-2,1.8-2.6,1.8-2.6M297,474.2c0-2-1.5-2.6-1.5-2.6M295.5,471.6s.9-1,2.4-.4c1.1.4,1.7,1.3,2,2.1.1.2.5.2.4-.1-.3-2.4-2-4.5-4.2-5-3.1-.7-5.9,1.1-6.4,4-.5,2.9,1.4,5,3.5,5.2,2.2.1,3.8-1.3,3.7-3.3"/>
            <path class="st1" d="M358.2,467.1s1.2-1,3.1-.3c1.7.6,3,2.6,1.5,4.5-1.4,1.9-3.2.8-3.6-.2-.4-1.1.9-2.3,2.1-1.5,0,0,.5-.8-.4-1.7-1.3-1.2-2.7-.8-2.7-.8M358,470.6s-.2,1.5,1.5,2.5,3.7.3,4.7-1.7c.9-2-.1-4.7-2.9-5.6-2.8-.9-5.7.6-6.6,3.7-.6,2.2.4,4.7,2.3,6.1.2.1.5-.1.3-.3-.5-.6-1-1.6-.9-2.8.2-1.7,1.5-1.9,1.5-1.9"/>
          </g>
          <g>
            <path class="st1" d="M307.6,497.6s-1.3.9-3.1.2c-1.7-.6-2.8-2.8-1.3-4.6,1.5-1.8,3.2-.6,3.5.3.4,1.1-1,2.3-2.1,1.4,0,0-.5.7.3,1.7,1.2,1.3,2.7,1,2.7,1M308,494.1s.3-1.5-1.4-2.6c-1.6-1.1-3.7-.5-4.7,1.4s-.1,4.7,2.6,5.7c2.8,1.1,5.7-.4,6.8-3.4.7-2.1-.2-4.7-2-6.2-.2-.2-.5.1-.3.3.5.7,1,1.7.7,2.8-.3,1.7-1.6,1.9-1.6,1.9"/>
            <path class="st1" d="M339.7,465.5s-1.1,1.1-3,.7c-1.7-.3-3.3-2.1-2.1-4.3,1.1-2,3.1-1.2,3.5-.3.6,1-.5,2.5-1.9,1.8,0,0-.4.9.7,1.6,1.4,1.1,2.8.5,2.8.5M339.5,462s0-1.5-1.8-2.3-3.7.2-4.4,2.3c-.6,2.1.7,4.6,3.6,5.1,2.9.5,5.6-1.4,6-4.6.3-2.2-1.1-4.6-3.2-5.7-.2-.1-.4.2-.2.4.6.6,1.2,1.4,1.2,2.7,0,1.7-1.2,2.1-1.2,2.1"/>
            <path class="st1" d="M300,466s1.5-.2,2.2-1.8c.5-1.2-.2-1.7-.2-1.7-.8,1.3-2.5.5-2.5-.6,0-1,1.3-2.7,3.3-1.4,2,1.3,1.6,3.6.2,4.8-1.5,1.3-3,.8-3,.8M298.6,462.9s-1.3.2-2.1-1.3c-.6-1.1-.5-2.1-.2-2.9,0-.2-.2-.4-.4-.2-1.3,2-1.4,4.8,0,6.6,1.9,2.5,5.2,3,7.5,1.1,2.2-1.8,2.2-4.7.6-6.3-1.6-1.5-3.7-1.4-4.9.1-1.2,1.6-.5,2.9-.5,2.9"/>
            <path class="st1" d="M337.6,489.7s-1.5-.3-2.2-2.2c-.6-1.7.1-4,2.6-4.1,2.3-.1,2.6,2,2.1,2.9-.6,1.1-2.4.8-2.5-.7,0,0-.9.1-1.1,1.4-.2,1.8,1,2.7,1,2.7M340.4,487.7s1.3-.8,1-2.8-2.1-3.1-4.3-2.6c-2.1.5-3.6,3-2.6,5.8,1.1,2.8,4.1,4,7,2.8,2.1-.9,3.4-3.3,3.3-5.7,0-.3-.4-.3-.4,0-.2.9-.6,1.8-1.6,2.4-1.4.9-2.4,0-2.4,0"/>
            <path class="st1" d="M349.6,434.1s1.2,1,.9,3c-.2,1.8-2,3.4-4.2,2.3-2.1-1.1-1.4-3-.5-3.5,1-.6,2.5.4,1.8,1.8,0,0,.9.3,1.6-.7,1-1.4.3-2.8.3-2.8M346.2,434.5s-1.5.1-2.2,1.9c-.7,1.8.4,3.7,2.5,4.3,2.1.5,4.6-1,5-3.8.4-2.9-1.7-5.5-4.8-5.9-2.3-.2-4.6,1.3-5.6,3.4-.1.2.2.4.4.2.5-.7,1.4-1.3,2.6-1.3,1.6,0,2.1,1.1,2.1,1.1"/>
            <path class="st1" d="M316.3,440.3s-1.5.1-2.3,1.7.1,1.7.1,1.7c.9-1.2,2.5-.4,2.5.7,0,1-1.4,2.6-3.3,1.3-2-1.4-1.4-3.7,0-4.8,1.6-1.2,3-.6,3-.6M317.6,443.5s1.3-.1,2,1.4c.5,1.1.4,2.1,0,2.9-.1.2.2.4.4.2,1.4-1.9,1.6-4.7.3-6.5-1.8-2.6-5.1-3.2-7.5-1.5-2.3,1.7-2.5,4.6-1,6.2s3.6,1.6,4.9.1c1.3-1.5.7-2.9.7-2.9"/>
          </g>
          <g>
            <path class="st1" d="M329.2,443s-1.4.7-3.1-.2c-1.6-.9-2.5-3.1-.7-4.7,1.7-1.6,3.3-.2,3.5.8.2,1.2-1.3,2.2-2.3,1.1,0,0-.6.7.1,1.7,1,1.5,2.5,1.4,2.5,1.4M330,439.7s.4-1.5-1.1-2.8c-1.5-1.3-3.6-1-4.9.9-1.2,1.8-.7,4.6,1.8,6,2.6,1.4,5.7.4,7.2-2.5,1-2,.4-4.7-1.3-6.4-.2-.2-.5,0-.3.3.4.7.7,1.8.3,2.9-.5,1.6-1.8,1.6-1.8,1.6"/>
            <path class="st1" d="M306.7,456.7s-1.7-.4-2.5-2.6c-.7-2,.2-4.6,3.1-4.7,2.7,0,3,2.3,2.5,3.4-.7,1.2-2.8.9-2.9-.9,0,0-1.1.1-1.3,1.6-.2,2,1.1,3.1,1.1,3.1M310.1,454.4s1.5-.9,1.2-3.2c-.3-2.3-2.4-3.6-4.9-3.1-2.5.6-4.2,3.4-3.1,6.7,1.2,3.2,4.7,4.8,8.2,3.4,2.6-1,4.2-4.1,3.9-6.9,0-.3-.4-.3-.4,0-.2,1.1-.6,2.3-2,3.1-1.7,1-2.9,0-2.9,0"/>
            <path class="st1" d="M354.5,462.7s-.1,1.5-1.8,2.5c-1.6.9-3.9.4-4.4-1.9-.4-2.3,1.6-2.9,2.5-2.5,1.1.4,1.2,2.2-.3,2.6,0,0,.3.9,1.5.8,1.8,0,2.5-1.4,2.5-1.4M352.1,460.2s-1-1.2-2.9-.6c-1.9.6-2.7,2.6-1.9,4.6.9,2,3.5,3.1,6.1,1.7,2.6-1.4,3.4-4.7,1.7-7.4-1.2-2-3.8-2.9-6.1-2.4-.3,0-.2.4,0,.4.9,0,1.9.3,2.6,1.3,1.1,1.3.4,2.4.4,2.4"/>
            <path class="st1" d="M350.5,481.1s-.9,1.5,0,3.3c.7,1.3,1.7,1.1,1.7,1.1-.5-1.6,1.3-2.7,2.4-1.8.9.7,1.5,3.1-1.1,4.1-2.7,1-4.5-1.2-4.5-3.3,0-2.4,1.5-3.4,1.5-3.4M354.4,482.1s.7-1.3,2.7-1c1.5.2,2.5,1.3,3,2.2.1.2.5.1.4-.2-.8-2.8-3.3-5.1-6.1-5.1-3.7,0-6.5,2.7-6.4,6.1,0,3.4,2.7,5.5,5.2,5.1s4-2.3,3.5-4.6c-.5-2.2-2.2-2.6-2.2-2.6"/>
            <path class="st1" d="M311.4,510.6s.9-.7.6-2.1c-.2-1-.9-1-.9-1,0,1.1-1.3,1.5-1.8.7-.4-.6-.4-2.2,1.4-2.3,1.8-.1,2.6,1.6,2.2,2.9-.4,1.5-1.5,1.9-1.5,1.9M309.1,509.3s-.7.6-1.9.1c-.7-.3-1.1-.9-1.3-1.4-.1-.2-.4-.1-.4.1.2,1.7,1.3,3.3,2.9,3.7,2.3.7,4.6-.5,5.2-2.7.6-2.1-.7-4-2.3-4.2-1.7-.3-3,.7-3.1,2.2,0,1.5,1,2,1,2"/>
            <path class="st1" d="M304.6,475.8s.7.9,2.1.6c1-.2,1-.9,1-.9-1.1,0-1.5-1.3-.7-1.8.6-.4,2.2-.4,2.3,1.4.1,1.8-1.5,2.6-2.9,2.3-1.5-.4-1.9-1.5-1.9-1.5M305.9,473.6s-.7-.7-.1-1.9c.3-.7.9-1.1,1.4-1.3.2-.1.1-.4-.1-.4-1.7.2-3.2,1.4-3.7,2.9-.7,2.3.5,4.6,2.7,5.1,2.1.5,4-.8,4.2-2.4.2-1.7-.7-3-2.3-3-1.5,0-2,1-2,1"/>
          </g>
          <g>
            <path class="st1" d="M313.3,466.3s.5-1-.2-2.2c-.5-.9-1.2-.6-1.2-.6.4,1.1-.7,1.8-1.5,1.3-.6-.4-1.2-1.9.5-2.7,1.7-.8,3,.5,3.2,1.9.2,1.5-.8,2.3-.8,2.3M310.7,465.9s-.4.9-1.7.8c-.8,0-1.3-.4-1.7-.8-.2-.2-.5,0-.3.3.8,1.5,2.4,2.6,4.1,2.4,2.4-.2,4.1-2.1,3.8-4.4-.3-2.2-2.1-3.4-3.7-3-1.6.4-2.5,1.8-2,3.2.4,1.4,1.6,1.5,1.6,1.5"/>
            <path class="st1" d="M343.6,510.6s-1.1-.3-1.5-1.8c-.4-1.3.4-3,2.2-2.9,1.8.1,1.9,1.7,1.4,2.3-.5.7-1.9.4-1.8-.7,0,0-.7,0-.9,1-.3,1.3.6,2.1.6,2.1M345.9,509.3s1.1-.5,1-2c0-1.5-1.4-2.5-3.1-2.2-1.6.2-2.9,2-2.3,4.2.6,2.2,2.9,3.4,5.2,2.7,1.6-.5,2.7-2,2.9-3.7,0-.3-.3-.3-.4-.1-.2.5-.6,1.1-1.3,1.4-1.1.5-1.8-.1-1.8-.1"/>
            <path class="st1" d="M327.9,486.7s-1.2.3-2.3-.7c-1-1-1.3-2.8.4-3.6,1.6-.9,2.5.4,2.5,1.2,0,.9-1.4,1.4-1.9.4,0,0-.6.4-.2,1.3.5,1.3,1.6,1.5,1.6,1.5M329.2,484.3s.6-1-.2-2.2-2.5-1.4-3.8-.3c-1.3,1.1-1.4,3.3.2,4.8,1.7,1.5,4.2,1.4,5.8-.5,1.1-1.2,1.2-3.2.5-4.7-.1-.2-.5-.1-.4.1.1.6,0,1.3-.4,1.9-.7,1.1-1.7.9-1.7.9"/>
            <path class="st1" d="M373.8,467.7s.5,1.4-.6,3c-1.1,1.4-3.4,2-4.8,0-1.4-1.9.2-3.3,1.3-3.3,1.2-.1,2,1.6.8,2.5,0,0,.6.7,1.7.1,1.6-.8,1.6-2.3,1.6-2.3M370.6,466.5s-1.4-.6-2.9.7c-1.5,1.3-1.4,3.4.2,4.9,1.6,1.5,4.5,1.3,6.2-1,1.7-2.4,1.1-5.6-1.5-7.5-1.9-1.3-4.6-1.1-6.5.4-.2.2,0,.5.2.4.8-.3,1.8-.5,2.9,0,1.4.7,1.4,2,1.4,2"/>
            <path class="st1" d="M332.1,449.3s1.6.9,1.6,3.2c0,2.1-1.6,4.3-4.3,3.5-2.6-.7-2.2-3.2-1.3-4,1-1,3,0,2.5,1.7,0,0,1.1.2,1.7-1.2.9-1.9-.2-3.3-.2-3.3M328.3,450.5s-1.7.4-2.1,2.7c-.4,2.3,1.2,4.2,3.8,4.4,2.6.2,5.1-2,4.9-5.4-.1-3.4-3.1-6-6.8-5.7-2.8.2-5.2,2.6-5.8,5.5,0,.2.3.4.4.1.5-1,1.3-2,2.9-2.4,1.9-.4,2.8.8,2.8.8"/>
            <path class="st1" d="M307.1,432s-1.2,0-1.8,1.3c-.4.9.1,1.3.1,1.3.7-.9,1.9-.3,1.9.6,0,.8-1.1,2-2.6,1-1.5-1.1-1.1-2.8,0-3.7,1.3-.9,2.3-.5,2.3-.5M308.1,434.4s1,0,1.6,1.1c.3.7.3,1.4.2,1.9,0,.2.3.4.4.2.9-1.5,1-3.4,0-4.7-1.4-2-3.9-2.5-5.7-1.1-1.8,1.4-1.9,3.6-.7,4.8,1.2,1.2,2.8,1.3,3.8.1,1-1.1.5-2.2.5-2.2"/>
            <path class="st1" d="M303.9,481.3s1.5.9,1.6,3.3c0,2.1-1.7,4.3-4.4,3.5-2.6-.8-2.1-3.2-1.3-4,1.1-.9,3,0,2.5,1.7,0,0,1.1.2,1.7-1.2.9-1.9,0-3.3,0-3.3M300.1,482.4s-1.7.4-2.2,2.7c-.4,2.3,1.2,4.2,3.7,4.4,2.6.2,5.1-1.9,5-5.3,0-3.4-3-6-6.7-5.8-2.8.1-5.2,2.5-5.9,5.3,0,.2.3.4.4.1.5-1,1.4-2,2.9-2.3,1.9-.3,2.8.9,2.8.9"/>
            <path class="st1" d="M286,449.9s-1.3,1.6-.3,4c.7,1.7,1.9,1.5,1.9,1.5-.5-2,1.9-3.1,3.1-1.9,1,1,1.4,4-1.8,4.7-3.3.8-5.2-2-5-4.5.2-2.9,2.1-3.8,2.1-3.8M290.5,451.6s1.1-1.5,3.3-.9c2,.5,3,2.1,3.5,3.3.1.2.5.1.4-.1-.4-3.6-3.3-6.8-6.8-7.3-4.5-.5-8.1,2.4-8.5,6.5-.3,4.1,2.6,6.9,5.7,6.8,3.1-.1,5.1-2.3,4.8-5.1-.3-2.8-2.4-3.4-2.4-3.4"/>
          </g>
          <g>
            <path class="st1" d="M358.6,505s-.6,1.4-2.7,1.6c-1.8.2-3.8-1.1-3.3-3.4.4-2.3,2.5-2.1,3.3-1.4.9.8.2,2.5-1.2,2.2,0,0-.1.9,1.1,1.3,1.7.6,2.8-.4,2.8-.4M357.3,501.8s-.5-1.5-2.5-1.6c-2-.2-3.5,1.4-3.4,3.5s2.1,4.2,5,3.8c2.9-.4,4.8-3.1,4.4-6.2-.4-2.2-2.5-4.1-4.8-4.5-.3,0-.4.3-.1.4.8.3,1.6,1,2,2.1.5,1.7-.5,2.5-.5,2.5"/>
            <path class="st1" d="M367.3,459.6s-1.1,1-3.1.5c-1.7-.4-3.1-2.4-1.8-4.4,1.3-1.9,3.1-1,3.6,0,.5,1.1-.7,2.4-2,1.6,0,0-.4.8.5,1.7,1.3,1.2,2.7.7,2.7.7M367.2,456.1s.1-1.5-1.7-2.4c-1.8-.9-3.7,0-4.5,2-.8,2,.4,4.7,3.2,5.4,2.9.7,5.7-1,6.4-4.2.5-2.2-.7-4.7-2.8-6-.2-.1-.4.2-.3.3.6.6,1.1,1.5,1,2.8-.1,1.7-1.4,2.1-1.4,2.1"/>
            <path class="st1" d="M317.1,471.8s-1.4.5-1.7,2.3c-.2,1.3.6,1.6.6,1.6.4-1.4,2.3-1.2,2.6,0,.3,1-.5,2.9-2.8,2.2-2.3-.7-2.5-3.1-1.5-4.6,1.2-1.7,2.7-1.6,2.7-1.6M319.3,474.4s1.2-.5,2.3.7,1.1,1.9,1,2.8c0,.3.3.3.4.1.7-2.3.1-4.9-1.7-6.3-2.6-1.9-5.8-1.5-7.5,1-1.7,2.4-.9,5.1,1,6.2,1.9,1,4,.4,4.7-1.4.8-1.8-.3-3-.3-3"/>
            <path class="st1" d="M279.9,466.7s-.4,1.4.9,2.7c.9.9,1.7.4,1.7.4-.9-1.2.4-2.6,1.5-2.1,1,.4,2,2.2.1,3.6-1.9,1.4-4,.1-4.5-1.6-.6-1.9.3-3.1.3-3.1M283.4,466.5s.3-1.2,1.9-1.5c1.2-.2,2.1.3,2.8.9.2.2.5,0,.3-.3-1.4-1.9-3.9-3-6.1-2.4-3.1.9-4.7,3.8-3.7,6.6.9,2.8,3.6,3.8,5.6,2.9,2-.9,2.7-2.9,1.7-4.6-1-1.7-2.5-1.5-2.5-1.5"/>
            <path class="st1" d="M334.2,425.9s-1.5,0-2.5,1.4c-.7,1.1,0,1.7,0,1.7,1-1.1,2.6-.1,2.3,1-.2,1-1.7,2.4-3.5.9-1.8-1.6-1-3.8.6-4.7,1.7-1,3.1-.3,3.1-.3M335.1,429.3s1.3,0,1.8,1.6c.4,1.1.2,2.1-.2,2.9-.1.2.2.4.3.3,1.6-1.7,2.1-4.5,1.1-6.5-1.5-2.8-4.7-3.8-7.3-2.3-2.5,1.5-3,4.3-1.7,6.1,1.3,1.7,3.4,2,4.9.7,1.5-1.4,1-2.8,1-2.8"/>
            <path class="st1" d="M347.9,475.7s.5-1.7-.9-3.2c-1-1.1-2-.6-2-.6,1,1.4-.5,3-1.8,2.4-1.1-.5-2.3-2.6,0-4.2,2.3-1.6,4.6,0,5.2,1.9.7,2.2-.5,3.6-.5,3.6M343.8,475.8s-.4,1.4-2.3,1.7c-1.6.2-2.7-.5-3.5-1.3-.2-.2-.5,0-.3.3,1.5,2.5,4.6,4,7.3,3.3,3.6-1,5.6-4.3,4.6-7.6-1-3.3-4.1-4.6-6.4-3.5s-3.3,3.3-2.1,5.3c1.1,2,2.9,1.8,2.9,1.8"/>
            <path class="st1" d="M313.5,500.8s-.9-1.5.1-3.6c1-1.8,3.5-3,5.5-1,1.9,1.9.4,3.8-.8,4.1-1.4.3-2.6-1.4-1.4-2.7,0,0-.8-.7-2,.2-1.6,1.3-1.4,3-1.4,3h0ZM317.4,501.7s1.7.5,3.2-1.3c1.5-1.8,1-4.3-1.2-5.7-2.1-1.4-5.4-.7-6.9,2.3-1.6,3.1-.2,6.7,3.2,8.3,2.5,1.2,5.8.2,7.7-1.9.2-.2,0-.5-.3-.3-.9.6-2.1,1.1-3.6.7-1.9-.5-2-2-2-2h0Z"/>
            <path class="st1" d="M289.4,488.9s-1.5.9-1.5,3c0,1.5,1.1,1.7,1.1,1.7.2-1.7,2.4-1.8,2.9-.5.5,1.1,0,3.5-2.8,3.1-2.8-.3-3.4-3.1-2.6-5,1.1-2.1,2.8-2.3,2.8-2.3M292.5,491.5s1.3-.8,2.8.3c1.3.9,1.6,2.2,1.7,3.3,0,.3.4.3.4,0,.6-2.9-.7-6-3.2-7.3-3.3-1.7-7-.5-8.5,2.6-1.5,3.1,0,6.1,2.4,6.9s4.6-.3,5.2-2.5c.5-2.2-.9-3.3-.9-3.3"/>
          </g>
          <g>
            <path class="st1" d="M319,426.4s1.6-.8,3.6.4c1.8,1.1,2.7,3.7.5,5.6-2.1,1.8-3.8,0-4-1.1-.2-1.4,1.6-2.5,2.8-1.1,0,0,.7-.8,0-2-1.1-1.7-2.8-1.7-2.8-1.7M317.9,430.2s-.6,1.7,1.1,3.3c1.7,1.6,4.2,1.3,5.7-.7,1.6-2,1.2-5.3-1.7-7.1-2.9-1.8-6.7-.8-8.5,2.5-1.4,2.4-.7,5.8,1.3,7.9.2.2.5,0,.3-.3-.5-.9-1-2.2-.4-3.7.7-1.8,2.2-1.8,2.2-1.8"/>
            <path class="st1" d="M295.8,443.3s-1.4-1.2-1-3.5c.3-2,2.4-3.9,4.9-2.6,2.4,1.3,1.5,3.5.5,4.2-1.2.7-2.9-.6-2.1-2.1,0,0-1-.4-1.9.8-1.2,1.7-.5,3.3-.5,3.3M299.8,442.9s1.8,0,2.6-2.2c.8-2.1-.4-4.3-2.8-5-2.5-.7-5.4,1-5.9,4.4-.5,3.4,1.9,6.4,5.6,6.9,2.8.3,5.6-1.5,6.7-4.2.1-.2-.2-.4-.4-.2-.6.9-1.7,1.7-3.3,1.8-2,0-2.6-1.3-2.6-1.3"/>
            <path class="st1" d="M367.3,490.9s1.5,1,1.4,3.4c-.1,2.1-1.9,4.2-4.6,3.2-2.6-1-1.9-3.3-1-4.1,1.1-.9,2.9.2,2.3,1.9,0,0,1.1.3,1.8-1,1-1.9.1-3.3.1-3.3M363.4,491.7s-1.7.3-2.3,2.5c-.6,2.2.9,4.3,3.4,4.7,2.5.4,5.2-1.6,5.4-5,.1-3.4-2.6-6.2-6.3-6.2-2.8,0-5.4,2.2-6.2,5,0,.2.3.4.4.2.5-.9,1.5-1.9,3-2.1,2-.3,2.7,1,2.7,1"/>
            <path class="st1" d="M328.7,470.4s.7-1.3,2.7-1.5c1.8-.1,3.7,1.3,3.1,3.6-.6,2.2-2.7,1.9-3.4,1.2-.9-.9,0-2.5,1.4-2.1,0,0,.1-.9-1.1-1.4-1.6-.7-2.8.2-2.8.2M329.8,473.6s.4,1.5,2.3,1.8c1.9.3,3.5-1.1,3.7-3.3.1-2.2-1.9-4.3-4.8-4.1-2.9.2-5,2.8-4.7,5.9.2,2.3,2.2,4.2,4.5,4.8.2,0,.4-.3.1-.4-.7-.4-1.6-1.1-1.8-2.3-.3-1.6.7-2.3.7-2.3"/>
            <path class="st1" d="M297,505.5s1.1,1,2.8.4c1.2-.4,1.2-1.3,1.2-1.3-1.5.2-2.1-1.5-1.2-2.2.7-.7,2.9-.8,3.3,1.5.4,2.4-1.6,3.6-3.4,3.4-2-.3-2.6-1.7-2.6-1.7M298.3,502.3s-1-.8-.4-2.4c.4-1.2,1.2-1.8,2-2.1.2-.1.1-.5-.1-.4-2.3.4-4.5,2.1-4.9,4.4-.5,3.1,1.3,5.9,4.3,6.3,2.9.4,5-1.5,5.1-3.7s-1.4-3.7-3.4-3.6c-2,.2-2.5,1.6-2.5,1.6"/>
            <path class="st1" d="M341.6,500.3s-.1-1.7-2-2.6c-1.4-.6-2,.2-2,.2,1.4,1,.6,2.9-.8,2.9-1.2,0-3.1-1.6-1.6-3.9,1.6-2.3,4.3-1.7,5.6-.1,1.5,1.8.9,3.5.9,3.5M337.9,501.9s.2,1.5-1.6,2.4c-1.4.7-2.7.5-3.7,0-.2-.1-.4.2-.2.4,2.3,1.8,5.7,2.1,8,.4,3-2.2,3.6-6,1.5-8.8-2.1-2.7-5.4-2.8-7.3-1-1.8,1.8-1.8,4.3,0,5.8,1.8,1.6,3.4.7,3.4.7"/>
            <path class="st1" d="M355.8,442.8s1.6-1.5,4.4-.7c2.5.7,4.4,3.5,2.5,6.3-1.8,2.8-4.5,1.4-5.1,0-.7-1.5,1.1-3.4,2.9-2.2,0,0,.6-1.2-.7-2.4-1.9-1.7-3.9-1.1-3.9-1.1M355.7,447.7s-.2,2.2,2.3,3.5c2.5,1.3,5.3.1,6.5-2.8,1.2-2.9-.5-6.6-4.5-7.8-4.1-1.1-8.1,1.4-9.2,5.8-.9,3.4,1.2,7.3,4.5,9,.2.1.4-.2.2-.4-1-.9-2.1-2.3-1.9-4.5.2-2.3,2-2.8,2-2.8"/>
          </g>
        </g>
        <g>
          <g>
            <path class="st1" d="M473.4,516.8c-1.4,0-2.4,1-2.9,2.7-.2.9-.2,1.1-.4,1.7-.2.4-.5.6-1,.6h-.3c-.9,0-.9-.4-1-.9-.3-1.6-.9-2.7-1.7-3.3-.9-.6-1.8-.8-2.7-.8s-1.1,0-1.6.2v1.4c.6-.1,1-.2,1.5-.2s1.4.1,1.9.5c.6.4.9,1.1,1.2,2.3,0,.3.1.5.2.7h-5.2c-1.2,0-1.7-.5-1.8-1.5v-.3c0-1.8-1.3-3.2-3-3.2s-2.4,1-2.9,2.7c-.2.9-.2,1.1-.4,1.7-.2.4-.5.6-1,.6h-1.2v-1.3c0-2.5-1.7-3.7-4.4-3.7h-.8v1.4h.8c2.1,0,3,.6,3,2.3v1.3h-4.5v1.4h7c.9,0,1.6-.3,2-1,.7.7,1.5,1,2.3,1s1.8-.4,2.3-1.2c.4.7,1.2,1.1,2.4,1.1h7.8c.9,0,1.6-.3,2-1,.7.7,1.5,1,2.3,1,1.6,0,3-1.2,3-3.2,0-1.7-1.4-3.1-3.1-3.1ZM456.5,521.8c-.6,0-1.2-.3-1.8-.9,0-.3.1-.6.3-1.2.3-1,.7-1.5,1.5-1.5s1.6.7,1.6,1.8c0,1.2-.7,1.8-1.6,1.8ZM473.4,521.8c-.6,0-1.2-.3-1.8-.9,0-.3.1-.6.3-1.2.3-1,.7-1.5,1.5-1.5s1.6.7,1.6,1.8-.7,1.8-1.6,1.8Z"/>
            <path class="st1" d="M510.2,516.8v5h-1.1c-1,0-1.4-.5-1.4-1.7v-2.9h-1.4v2.9c0,1.2-.4,1.7-1.2,1.7h-1.3v-4.6h-1.4v4.6h-2.8v-5h-1.4v5h-1.1c-1,0-1.4-.5-1.4-1.7v-2.9h-1.4v2.9c0,1.2-.4,1.7-1.2,1.7h-1.3v-4.6h-1.4v4.6h-1.7c-1.1,0-1.6-.5-1.6-1.7v-3.8h-1.4v.6c-.3,0-.5,0-.8,0-2.1,0-3.8,1.1-3.8,3.3s1,2.8,2.7,2.8,1.9-.5,2.2-1.5c.4,1.1,1.4,1.7,2.9,1.7h4.4c.9,0,1.6-.4,2.1-1,.4.7,1.1,1,2.2,1h7.8c.9,0,1.6-.4,2.1-1,.4.7,1.1,1,2.2,1h2.3v-6.4h-1.6ZM485.5,519.4c0,1.3-.7,2.2-1.8,2.2s-1.5-.7-1.5-1.5c0-1.3,1.1-2,2.5-2s.5,0,.8,0v1.2h0Z"/>
            <path class="st1" d="M516.4,515.1c-.4,0-.6-.2-.6-.6s.3-.5.6-.5.3,0,.4.1l.4-.7c-.3-.1-.6-.2-.9-.2-.7,0-1.4.5-1.4,1.2s.1.5.3.7h-.3v.7h2.5v-.7h-.9Z"/>
            <path class="st1" d="M525,516.8c-1.4,0-2.4,1-2.9,2.7-.2.9-.2,1.1-.4,1.7-.2.4-.5.6-1,.6h-1.2v-5h-2.1c-2.9,0-4,1.6-4,3.3s1,3.1,4,3.1h.6c-.3,1-1.1,1.5-2.3,1.5s-.7,0-1.1,0v1.4c.5.1,1,.1,1.4.1,1.9,0,3.1-1,3.4-2.9h1.2c.9,0,1.6-.3,2-1,.7.7,1.5,1,2.3,1,1.6,0,3-1.2,3-3.2,0-1.8-1.3-3.2-3-3.2ZM518.1,521.8h-.6c-2,0-2.7-.9-2.7-1.8s.6-1.8,2.6-1.8h.7v3.5ZM525,521.8c-.6,0-1.2-.3-1.8-.9,0-.3.1-.6.3-1.2.3-1,.7-1.5,1.5-1.5s1.6.7,1.6,1.8-.7,1.8-1.6,1.8Z"/>
            <path class="st1" d="M422.1,516.8v5h-1.1c-1,0-1.4-.5-1.4-1.7v-2.9h-1.4v2.9c0,1.2-.4,1.7-1.2,1.7h-1.3v-4.6h-1.4v4.6h-1.7c-1.3,0-1.8-.5-1.8-1.7v-5.6h-1.4v5.6c0,1.2-.5,1.7-1.7,1.7h0c-1.2,0-1.7-.4-1.8-1.5.1-2.1-1.3-3.5-3-3.5s-2.4,1-2.9,2.7c-.2.9-.2,1.1-.4,1.7-.2.4-.5.6-1,.6h-1.6v-7.3h-1.4v8.7h3.1c.9,0,1.6-.3,2-1,.7.7,1.5,1,2.3,1s1.8-.4,2.3-1.2c.4.7,1.2,1.1,2.4,1.1h0c1.1,0,2-.4,2.5-1.1.4.7,1.2,1.1,2.3,1.1h4.4c.9,0,1.6-.4,2.1-1,.4.7,1.1,1,2.2,1h2.3v-6.4h-1.5ZM403,521.8c-.6,0-1.2-.3-1.8-.9,0-.3.1-.6.3-1.2.3-1,.7-1.5,1.5-1.5s1.6.7,1.6,1.8c0,1.2-.7,1.8-1.6,1.8Z"/>
            <path class="st1" d="M393.7,523.2c-.3,1.5-1.4,2.9-3.8,2.9s-4-1.5-4-4.2v-3.7h1.4v3.7c0,1.7.7,2.8,2.5,2.8s2.5-1.1,2.5-2.8v-3.7h1.4v3.6c0,.8-.1,1.4-.1,1.4Z"/>
            <path class="st1" d="M440.5,517.7v5.6h-4.4c-.3,1.5-1.4,2.9-3.8,2.9s-4-1.5-4-4.2v-3.7h1.4v3.7c0,1.7.7,2.8,2.5,2.8s2.5-1.1,2.5-2.8v-3.7h1.4v3.6h2.8v-4.2h1.5Z"/>
            <path class="st1" d="M440,525.1c0,.5-.4.9-.9.9s-.9-.4-.9-.9.4-.9.9-.9.9.4.9.9Z"/>
            <path class="st1" d="M484,514.6c0,.5-.4.9-.9.9s-.9-.4-.9-.9.4-.9.9-.9c.5,0,.9.4.9.9Z"/>
            <path class="st1" d="M486.3,514.6c0,.5-.4.9-.9.9s-.9-.4-.9-.9.4-.9.9-.9.9.4.9.9Z"/>
            <path class="st1" d="M433.1,517.3c0,.5-.4.9-.9.9s-.9-.4-.9-.9.4-.9.9-.9.9.4.9.9Z"/>
            <path class="st1" d="M390.8,517.3c0,.5-.4.9-.9.9s-.9-.4-.9-.9.4-.9.9-.9.9.4.9.9Z"/>
          </g>
          <g>
            <g>
              <path class="st1" d="M385.9,529.8h1.3l2.8,3.8,2.9-3.8h1.3v8.2h-1.5v-5.8l-2.5,3.4h-.4l-2.5-3.4v5.8h-1.5v-8.2h0Z"/>
              <path class="st1" d="M397.4,537.8c-.5-.3-.9-.7-1.2-1.2s-.4-1.1-.4-1.7.1-1.2.4-1.7c.3-.5.7-.9,1.2-1.2.5-.3,1.1-.4,1.7-.4s1.2.1,1.7.4c.5.3.9.7,1.2,1.2s.4,1.1.4,1.7-.1,1.2-.4,1.7c-.3.5-.7.9-1.2,1.2-.5.3-1.1.4-1.7.4s-1.2-.2-1.6-.4ZM400,536.7c.3-.2.5-.4.6-.7.2-.3.2-.6.2-1s0-.7-.2-1c-.2-.3-.4-.5-.6-.7s-.6-.2-.9-.2-.6,0-.9.2c-.3.2-.5.4-.6.7s-.2.6-.2,1,0,.7.2,1c.2.3.4.5.6.7s.6.2.9.2.6,0,.9-.2Z"/>
              <path class="st1" d="M405.2,529.6v3.2c.2-.3.4-.6.8-.8.4-.2.8-.3,1.3-.3.8,0,1.5.3,1.9.8s.6,1.3.6,2.3v3.4h-1.5v-3.3c0-.6-.1-1-.4-1.3-.2-.3-.6-.4-1.1-.4s-.5,0-.8.2c-.2.2-.4.4-.6.7-.2.3-.2.6-.2,1v3.2h-1.5v-8.5h1.5Z"/>
              <path class="st1" d="M412.5,537.8c-.4-.3-.8-.7-1.1-1.2-.2-.5-.4-1.1-.4-1.7s.1-1.2.4-1.7c.3-.5.6-.9,1.1-1.2.4-.3,1-.4,1.5-.4s1,.1,1.4.3c.4.2.7.5.9.9v-1.1h1.4v6.2h-1.4v-1.1c-.2.4-.5.7-.9.9-.4.2-.9.3-1.4.3-.5,0-1.1-.2-1.5-.5ZM415.3,536.7c.3-.2.5-.4.6-.7.2-.3.2-.6.2-1s0-.7-.2-1-.4-.5-.6-.7c-.3-.2-.6-.3-.9-.3s-.6,0-.9.2-.5.4-.6.7c-.2.3-.2.6-.2,1s0,.7.2,1c.2.3.4.5.7.7.3.2.6.2.9.2.3,0,.6,0,.9-.2Z"/>
              <path class="st1" d="M428.9,532.5c.4.5.6,1.3.6,2.3v3.4h-1.4v-3.3c0-.6-.1-1-.3-1.3-.2-.3-.5-.4-1-.4s-.5,0-.7.2-.4.4-.5.7c-.1.3-.2.6-.2,1v3.2h-1.5v-3.3c0-.6-.1-1-.3-1.3-.2-.3-.5-.4-1-.4s-.5,0-.7.2-.4.4-.5.7c-.1.3-.2.6-.2,1v3.2h-1.5v-6.2h1.4v1c.2-.3.5-.6.8-.8.3-.2.7-.3,1.2-.3s1,.1,1.3.3.6.6.8,1.1c.3-.5.6-.8,1-1.1.4-.2.8-.3,1.2-.3.8,0,1.4.2,1.8.8Z"/>
              <path class="st1" d="M440.7,532.5c.4.5.6,1.3.6,2.3v3.4h-1.4v-3.3c0-.6-.1-1-.3-1.3-.2-.3-.5-.4-1-.4s-.5,0-.7.2-.4.4-.5.7c-.1.3-.2.6-.2,1v3.2h-1.5v-3.3c0-.6-.1-1-.3-1.3-.2-.3-.5-.4-1-.4s-.5,0-.7.2-.4.4-.5.7c-.1.3-.2.6-.2,1v3.2h-1.5v-6.2h1.4v1c.2-.3.5-.6.8-.8.3-.2.7-.3,1.2-.3s1,.1,1.3.3.6.6.8,1.1c.3-.5.6-.8,1-1.1.4-.2.8-.3,1.2-.3.8,0,1.4.2,1.8.8Z"/>
              <path class="st1" d="M448.9,535.4h-4.9c0,.3.2.6.3.9.2.2.4.4.6.5.2.1.5.2.8.2s.6,0,.9-.2c.2-.1.4-.3.5-.6h1.6c-.1.4-.3.7-.6,1.1-.3.3-.6.6-1,.8s-.9.3-1.4.3-1.2-.1-1.7-.4c-.5-.3-.9-.7-1.2-1.2-.3-.5-.4-1.1-.4-1.7s.1-1.2.4-1.7.7-.9,1.2-1.2c.5-.3,1.1-.4,1.7-.4s1.2.1,1.6.4c.5.3.9.7,1.1,1.2s.4,1,.4,1.6c0,.1,0,.3,0,.5ZM447.5,534.2c0-.2-.1-.4-.3-.6-.2-.2-.3-.3-.6-.5s-.5-.2-.8-.2-.7.1-1.1.3c-.3.2-.5.5-.6,1h3.4Z"/>
              <path class="st1" d="M451.3,537.8c-.4-.3-.8-.7-1.1-1.2-.3-.5-.4-1.1-.4-1.7s.1-1.2.4-1.7c.2-.5.6-.9,1.1-1.2.5-.3,1-.4,1.6-.4s.6,0,.9.2.5.3.7.4.4.4.5.6v-.6s0-2.7,0-2.7h1.5v8.5h-1.4v-1.1c-.2.3-.5.6-.9.9-.4.2-.8.3-1.3.3-.5,0-1.1-.1-1.5-.4ZM454,536.7c.3-.2.5-.4.7-.7.2-.3.2-.6.2-1s0-.7-.2-1-.4-.5-.6-.7c-.3-.2-.6-.3-.9-.3s-.6,0-.9.2-.5.4-.6.7c-.2.3-.2.6-.2,1s0,.7.2,1,.4.5.6.7c.3.2.6.3,1,.3.2,0,.5,0,.9-.2Z"/>
            </g>
            <path class="st1" d="M464.7,529.8c.5,0,.9.1,1.3.3s.7.4.9.8.3.7.3,1.2,0,.5-.1.7c-.1.2-.2.4-.4.6s-.3.3-.5.4c.3.1.5.2.7.4.2.2.4.4.5.7.1.3.2.5.2.9,0,.5-.1,1-.4,1.3-.2.4-.6.6-1,.8s-.8.3-1.3.3h-4v-8.2h3.6ZM465.1,533.2c.2-.1.3-.2.4-.4.1-.2.1-.3.1-.5s0-.4-.1-.5c-.1-.2-.2-.3-.4-.4-.2-.1-.3-.1-.5-.1h-2v2.1h2c.2,0,.4,0,.5-.2ZM465.5,536.6c.2-.1.3-.2.4-.4.1-.2.2-.4.2-.6s0-.4-.2-.6-.2-.3-.4-.4c-.2-.1-.4-.2-.6-.2h-2.3v2.3h2.3c.2,0,.4,0,.6-.1Z"/>
            <rect class="st1" x="469" y="531.9" width="1.5" height="6.2"/>
            <path class="st1" d="M473.7,531.9v1c.2-.3.5-.6.9-.9.4-.2.8-.3,1.3-.3.8,0,1.5.3,1.9.8s.6,1.3.6,2.3v3.4h-1.5v-3.3c0-.6-.1-1-.4-1.3-.2-.3-.6-.4-1.1-.4s-.6,0-.8.2c-.2.1-.4.4-.6.6-.1.3-.2.6-.2,1v3.2h-1.5v-6.2h1.4Z"/>
            <g>
              <path class="st1" d="M484,537.9c-.5-.2-.9-.6-1.1-1s-.3-.8-.3-1.3h1.5c0,.3,0,.5.2.7.1.2.3.4.6.5.3.1.6.2,1,.2,1.2,0,1.8-.4,1.8-1.2s0-.4-.2-.6c-.1-.2-.4-.3-.6-.4-.3-.1-.6-.2-1-.3-.6-.1-1.1-.3-1.5-.4s-.8-.4-1.1-.7c-.3-.3-.4-.8-.4-1.3s.1-.9.3-1.2c.2-.3.6-.6,1-.9.5-.2,1-.3,1.7-.3s1.2.1,1.7.3c.5.2.8.5,1.1.9.2.4.3.8.3,1.3h-1.5c0-.3-.1-.6-.4-.8-.3-.2-.7-.3-1.2-.3s-1,.1-1.2.3c-.2.2-.3.4-.3.7s0,.4.2.6c.1.2.4.3.7.4s.7.2,1.2.3c.9.2,1.6.4,2.1.8.5.4.8,1,.8,1.7s-.1,1-.4,1.4-.7.6-1.2.9c-.5.2-1.1.3-1.8.3-.8,0-1.4-.1-1.9-.4Z"/>
              <path class="st1" d="M491.6,537.8c-.4-.3-.8-.7-1.1-1.2-.2-.5-.4-1.1-.4-1.7s.1-1.2.4-1.7c.3-.5.6-.9,1.1-1.2.4-.3,1-.4,1.5-.4s1,.1,1.4.3c.4.2.7.5.9.9v-1.1h1.4v6.2h-1.4v-1.1c-.2.4-.5.7-.9.9-.4.2-.9.3-1.4.3-.5,0-1-.2-1.5-.5ZM494.4,536.7c.3-.2.5-.4.6-.7.2-.3.2-.6.2-1s0-.7-.2-1-.4-.5-.6-.7c-.3-.2-.6-.3-.9-.3s-.6,0-.9.2-.5.4-.6.7c-.2.3-.2.6-.2,1s0,.7.2,1c.2.3.4.5.7.7.3.2.6.2.9.2.3,0,.6,0,.9-.2Z"/>
              <path class="st1" d="M498.6,529.6h1.5v8.5h-1.5v-8.5Z"/>
              <path class="st1" d="M511.2,532.5c.4.5.6,1.3.6,2.3v3.4h-1.4v-3.3c0-.6-.1-1-.3-1.3-.2-.3-.5-.4-1-.4s-.5,0-.7.2-.4.4-.5.7c-.1.3-.2.6-.2,1v3.2h-1.5v-3.3c0-.6-.1-1-.3-1.3-.2-.3-.5-.4-1-.4s-.5,0-.7.2-.4.4-.5.7c-.1.3-.2.6-.2,1v3.2h-1.5v-6.2h1.4v1c.2-.3.5-.6.8-.8.3-.2.7-.3,1.2-.3s1,.1,1.3.3.6.6.8,1.1c.3-.5.6-.8,1-1.1.4-.2.8-.3,1.2-.3.8,0,1.4.2,1.8.8Z"/>
              <path class="st1" d="M514.6,537.8c-.4-.3-.8-.7-1.1-1.2-.2-.5-.4-1.1-.4-1.7s.1-1.2.4-1.7c.3-.5.6-.9,1.1-1.2.4-.3,1-.4,1.5-.4s1,.1,1.4.3c.4.2.7.5.9.9v-1.1h1.4v6.2h-1.4v-1.1c-.2.4-.5.7-.9.9-.4.2-.9.3-1.4.3-.6,0-1.1-.2-1.5-.5ZM517.4,536.7c.3-.2.5-.4.6-.7.2-.3.2-.6.2-1s0-.7-.2-1-.4-.5-.6-.7c-.3-.2-.6-.3-.9-.3s-.6,0-.9.2-.5.4-.6.7c-.2.3-.2.6-.2,1s0,.7.2,1c.2.3.4.5.7.7.3.2.6.2.9.2.3,0,.6,0,.9-.2Z"/>
              <path class="st1" d="M523,531.9v1c.2-.3.5-.6.9-.9.4-.2.8-.3,1.3-.3.8,0,1.5.3,1.9.8s.6,1.3.6,2.3v3.4h-1.5v-3.3c0-.6-.1-1-.4-1.3-.2-.3-.6-.4-1.1-.4s-.6,0-.8.2c-.2.1-.4.4-.6.6-.1.3-.2.6-.2,1v3.2h-1.5v-6.2h1.4Z"/>
            </g>
            <path class="st1" d="M385.9,542.4h5.7v1.4h-4.1v2.4h3.6v1.3h-3.6v3.2h-1.5v-8.2h0Z"/>
            <path class="st1" d="M393.5,550.4c-.5-.3-.9-.7-1.2-1.2s-.4-1.1-.4-1.7.1-1.2.4-1.7c.3-.5.7-.9,1.2-1.2.5-.3,1.1-.4,1.7-.4s1.2.1,1.7.4c.5.3.9.7,1.2,1.2s.4,1.1.4,1.7-.1,1.2-.4,1.7c-.3.5-.7.9-1.2,1.2-.5.3-1.1.4-1.7.4s-1.1-.2-1.6-.4ZM396.2,549.2c.3-.2.5-.4.6-.7.2-.3.2-.6.2-1s0-.7-.2-1c-.2-.3-.4-.5-.6-.7-.3-.2-.6-.2-.9-.2s-.6,0-.9.2c-.3.2-.5.4-.6.7s-.2.6-.2,1,0,.7.2,1c.2.3.4.5.6.7s.6.2.9.2c.3,0,.6,0,.9-.2Z"/>
            <path class="st1" d="M401.2,550.5c-.4-.2-.8-.5-1-1s-.4-1.1-.4-1.8v-3.3h1.5v3.3c0,.6.1,1,.4,1.3s.6.4,1.1.4.9-.1,1.1-.4c.2-.3.4-.7.4-1.3v-3.3h1.5v3.3c0,.7-.1,1.3-.4,1.8-.2.4-.6.8-1,1-.4.2-1,.3-1.5.3-.6,0-1.1,0-1.6-.3Z"/>
            <path class="st1" d="M408.7,544.4v1c.2-.3.5-.6.9-.9.4-.2.8-.3,1.3-.3.8,0,1.5.3,1.9.8s.6,1.3.6,2.3v3.4h-1.5v-3.3c0-.6-.1-1-.4-1.3-.2-.3-.6-.4-1.1-.4s-.6,0-.8.2c-.2.1-.4.4-.6.6-.1.3-.2.6-.2,1v3.2h-1.5v-6.2h1.4Z"/>
            <path class="st1" d="M416.2,550.4c-.4-.3-.8-.7-1.1-1.2-.3-.5-.4-1.1-.4-1.7s.1-1.2.4-1.7c.2-.5.6-.9,1.1-1.2.5-.3,1-.4,1.6-.4s.6,0,.9.2.5.3.7.4.4.4.5.6v-.6s0-2.7,0-2.7h1.5v8.5h-1.4v-1.1c-.2.3-.5.6-.9.9-.4.2-.8.3-1.3.3-.6,0-1.1-.1-1.5-.4ZM418.9,549.2c.3-.2.5-.4.7-.7.2-.3.2-.6.2-1s0-.7-.2-1-.4-.5-.6-.7c-.3-.2-.6-.3-.9-.3s-.6,0-.9.2-.5.4-.6.7c-.2.3-.2.6-.2,1s0,.7.2,1,.4.5.6.7c.3.2.6.3,1,.3.3,0,.6,0,.9-.2Z"/>
            <path class="st1" d="M424.1,550.4c-.4-.3-.8-.7-1.1-1.2-.2-.5-.4-1.1-.4-1.7s.1-1.2.4-1.7c.3-.5.6-.9,1.1-1.2.4-.3,1-.4,1.5-.4s1,.1,1.4.3c.4.2.7.5.9.9v-1.1h1.4v6.2h-1.4v-1.1c-.2.4-.5.7-.9.9-.4.2-.9.3-1.4.3-.5,0-1-.2-1.5-.5ZM426.9,549.2c.3-.2.5-.4.6-.7.2-.3.2-.6.2-1s0-.7-.2-1-.4-.5-.6-.7c-.3-.2-.6-.3-.9-.3s-.6,0-.9.2-.5.4-.6.7c-.2.3-.2.6-.2,1s0,.7.2,1c.2.3.4.5.7.7.3.2.6.2.9.2.3,0,.6,0,.9-.2Z"/>
            <path class="st1" d="M432.1,550.1c-.4-.3-.6-1-.6-1.9v-2.6h-1.3v-1.3h1.3v-1.8h1.5v1.8h1.9v1.3h-1.9v2.7c0,.7.3,1.1.9,1.1h1v1.2h-1.3c-.6,0-1.1-.2-1.5-.5Z"/>
            <rect class="st1" x="436.2" y="544.4" width="1.5" height="6.2"/>
            <path class="st1" d="M440.7,550.4c-.5-.3-.9-.7-1.2-1.2-.3-.5-.4-1.1-.4-1.7s.1-1.2.4-1.7.7-.9,1.2-1.2c.5-.3,1.1-.4,1.7-.4s1.2.1,1.7.4c.5.3.9.7,1.2,1.2.3.5.4,1.1.4,1.7s-.1,1.2-.4,1.7-.7.9-1.2,1.2c-.5.3-1.1.4-1.7.4s-1.1-.2-1.6-.4ZM443.3,549.2c.3-.2.5-.4.6-.7.2-.3.2-.6.2-1s0-.7-.2-1c-.2-.3-.4-.5-.6-.7s-.6-.2-.9-.2-.6,0-.9.2-.5.4-.6.7-.2.6-.2,1,0,.7.2,1c.2.3.4.5.6.7.3.2.6.2.9.2s.6,0,.9-.2Z"/>
            <path class="st1" d="M448.4,544.4v1c.2-.3.5-.6.9-.9.4-.2.8-.3,1.3-.3.8,0,1.5.3,1.9.8s.6,1.3.6,2.3v3.4h-1.5v-3.3c0-.6-.1-1-.4-1.3-.2-.3-.6-.4-1.1-.4s-.6,0-.8.2c-.2.1-.4.4-.6.6-.1.3-.2.6-.2,1v3.2h-1.5v-6.2h1.4Z"/>
            <path class="st1" d="M470.7,530.1c0,.5-.4.9-.9.9s-.9-.4-.9-.9.4-.9.9-.9.9.4.9.9Z"/>
            <path class="st1" d="M437.8,542.6c0,.5-.4.9-.9.9s-.9-.4-.9-.9.4-.9.9-.9.9.4.9.9Z"/>
          </g>
          <g>
            <g>
              <path class="st1" d="M385.9,489.3h3.6l6.4,8.8h0l6.5-8.8h3.5v19.6h-4.1v-13.1l-5.4,7.5h-1.1l-5.4-7.6v13.1h-4.1v-19.6h0Z"/>
              <path class="st1" d="M410.6,494h4v14.9h-4v-14.9Z"/>
              <path class="st1" d="M424.5,509.4c-4.4,0-6.5-2.6-6.5-5.3h3.8c.1,2,2.1,2.1,2.7,2.1s2.3,0,2.3-1.6-.9-1.4-2.9-1.7c-1.1-.1-5.4-.6-5.4-4.7s1.9-4.7,5.8-4.7,6.1,1.8,6.1,4.9h-3.9c0-.7-.4-1.7-2.2-1.7s-1.9,1.1-1.9,1.4c0,.9.6,1.1,1.1,1.2.4.1,1,.2,2.2.4,2.5.4,5.2,1.1,5.2,4.6,0,3.5-2.9,5-6.4,5Z"/>
              <polygon class="st1" points="448.5 508.9 444.1 508.9 440.7 502.8 438.4 505.8 438.4 508.9 434.4 508.9 434.4 489.3 438.4 489.3 438.4 499.9 443.1 494 447.5 494 443.2 499.5 448.5 508.9"/>
              <circle class="st1" cx="412.6" cy="489.8" r="2.2"/>
            </g>
            <g>
              <path class="st1" d="M471.3,498.2h-7.4v-2.2h.8c-.5-.5-.8-1.2-.8-2.1,0-2.2,1.9-3.6,4.2-3.6s1.8.2,2.7.6l-1.1,2.1c-.5-.2-.9-.3-1.4-.3-1,0-1.8.4-1.8,1.5s.8,1.7,1.9,1.7h2.8v2.2h0Z"/>
              <path class="st1" d="M521,494.3c-3.3,0-5.9,2.1-7,6.4-.7,2.8-.9,4.3-2.7,4.3h-1.3c-1.9,0-2.8-1.1-2.8-3.4v-7.3h-4v7.5c0,3-1.6,3.2-2.3,3.2h-2.5v-9.8h-4v9.8h-4.8v-9.8h-4v9.8h-2.2c-1.4,0-2.6-.3-3.2-1s-.9-1.4-.9-2.4v-12.3h-4v12.3c0,2.4-1,3.4-3.3,3.4h-7.2c-3.5,0-5.2-1.8-5.2-4.6s.2-1.8.5-2.9h-3.7c-.5,1.5-.8,2.8-.8,4,0,5,4.5,7.5,9.3,7.5h7.2c2.5,0,4.5-.9,5.7-2.3,1,1.5,2.7,2.3,5.5,2.3h18.3c2.8,0,4.1-2,4.3-2.2.9,1.4,2.4,2.2,4.8,2.2h.6c2,0,3.6-.7,4.7-2,1.6,1.4,3.6,2,5.4,2,4.2,0,6.8-3.3,6.8-7,0-3.7-2.7-7.6-7.2-7.6ZM520.8,505.2c-1.1,0-2.4-.4-3.5-1.2.2-.9.4-1.6.7-2.6.6-2.1,1.5-3.1,3.1-3.1,2.4,0,3.2,2.3,3.2,3.6,0,2.2-1.7,3.3-3.5,3.3Z"/>
            </g>
          </g>
        </g>
      </g>
      <g>
        <g>
          <rect class="st1" x="627.8" y="466.6" width="6" height="6" transform="translate(-147.3 583.6) rotate(-45)"/>
          <polygon class="st1" points="661.8 495.7 658 491.9 653.8 496.1 658 500.3 661.8 496.5 665.7 500.3 669.9 496.1 665.7 491.9 661.8 495.7"/>
          <path class="st1" d="M768.7,481.4h-3.2c-6.7-.2-9.7-3.2-12.7-9.2-3.5-6.9-8.3-16.4-23.8-8.8l3.2,6.6c9-4.4,10.6-1.5,14.1,5.5.8,1.5,2.3,4,3.7,5.9h-31.3v-16l-7.4,2.4v19.7c0,5.8-2.3,7.4-8,8.1-.5,0-1.5.2-2.6.2l1.6,6.6c9.5-.5,15.9-4.2,16.4-14h57.4s0-40.4,0-40.4l-7.4,2.4v31Z"/>
          <polygon class="st1" points="784.6 449.5 784.6 488.5 792 488.5 792 447.1 784.6 449.5"/>
          <path class="st1" d="M700.2,485.2c1-4.7,1.9-13.2-3.6-17.6-2.3-1.9-5.5-2.6-8.5-1.9-2.4.5-5.8,2.1-8.3,6.9-1.6,3.1-2.7,5.9-3.5,8-.2.5-.6.8-1.1.8h-8.5c.4-1.2.4-2.4.4-3.6v-12.4l-7.4,2.4v11.3c0,.6,0,1.6-.4,2.3h-10.2v-16l-7.4,2.4v18c0,6.9-3.5,9.6-9.5,9.6s-9.4-3.8-9.4-9.6v-10.3l-7.4,1.9v9.7c0,11.3,9.3,15.3,16.8,15.3s16.2-5.2,16.8-14h29.4c1.1,0,2.2-.5,2.8-1.4l.6-.8,12.5,3.5,5.2-3,.3-1.5ZM693.5,482l-8.9-2.5c.5-1.1,1.1-2.4,1.7-3.6.6-1.3,1.8-2.8,3.4-3.2,1-.2,2,.1,2.5.5,1.5,1.2,2,4.6,1.3,8.8Z"/>
        </g>
        <g>
          <path class="st1" d="M615.7,529.9c1-.3,2.4-.5,4-.3.6,0,1.2.2,1.8.5,0,0,.1,0,.2,0,.3.1.6.3,1,.4.3.1.5.3.8.5.6.4,1.2.8,1.8,1.3.7-4.1.3-7.9.2-9.7,0,0,0,0,0,0-1.4.9-1,3.4-.7,4.2,0,0,0,0,0,0-1.8-2.1-.9-4.5-.5-5.1,0,0,0,0,0,0-.3.2-.5.4-.6.7-.6.7-.8,1.5-.8,2.2,0,.4,0,.7,0,1,0,0,0,.1,0,.2,0,0,0,0,0,0,0,0,0,0,0,0-.5-1-.7-2.4,0-3.8.2-.4.5-.8.8-1.1.1-.1.2-.2.3-.3,0,0,0,0,0,0-.1,0-.2,0-.3,0-.3.1-.6.3-.8.4-.5.4-.9,1-1.1,1.5-.2.5-.3,1-.3,1.4,0,0,0,0,0,0-.3-1.2-.1-2.2.3-2.9.3-.5.7-.8,1.1-1.1.3-.2.6-.3.8-.4.1,0,.3,0,.4,0,0,0,0,0,0,0-.1,0-.3,0-.4,0-.3,0-.6,0-.8,0-.5,0-.9.3-1.1.5-.5.3-.7.7-.8.8,0,0,0,0,0,0,0-.7.4-1.2.8-1.5.3-.3.7-.5,1.1-.6.3,0,.5-.1.8-.1.4,0,.7,0,1,.2,0,0,0,0,0,0-.3-.4-.6-.6-1-.7-.3,0-.6-.1-.8,0-.3,0-.5,0-.7.2,0,0,0,0,0,0,.2-.2.4-.4.7-.6.3-.1.5-.2.8-.3.7,0,1.5.2,2,1,0,0,0,0,0,0,0-.2.2-.4.3-.6.2-.5.4-1,.4-1.5,0,.5.2,1,.4,1.5,0,.2.2.4.3.6,0,0,0,0,0,0,.5-.7,1.2-1.1,2-1,.3,0,.6.1.8.3.2.1.5.3.7.6,0,0,0,0,0,0-.2,0-.4-.1-.7-.2-.3,0-.5,0-.8,0-.4.1-.8.4-1,.7,0,0,0,0,0,0,.3-.1.7-.2,1-.2.3,0,.5,0,.8.1.4.1.8.3,1.1.6.4.4.7.9.8,1.5,0,0,0,0,0,0,0-.1-.3-.5-.8-.8-.3-.2-.7-.4-1.1-.5-.2,0-.5,0-.8,0-.1,0-.3,0-.4,0,0,0,0,0,0,0,.1,0,.2,0,.4,0,.2,0,.5.2.8.4.4.3.8.6,1.1,1.1.4.7.6,1.6.3,2.9,0,0,0,0,0,0,0-.4,0-.9-.3-1.4-.2-.6-.6-1.1-1.1-1.5-.2-.2-.5-.3-.8-.4-.1,0-.2,0-.3,0,0,0,0,0,0,0,.1.1.2.2.3.3.4.4.6.7.8,1.1.7,1.4.5,2.8,0,3.8,0,0,0,0,0,0,0,0,0,0,0,0,0,0,0-.1,0-.2,0-.3,0-.6,0-1,0-.7-.3-1.4-.8-2.2-.2-.2-.4-.5-.6-.7,0,0,0,0,0,0,.4.6,1.2,2.9-.5,5.1,0,0,0,0,0,0,.3-.7.7-3.3-.7-4.2,0,0,0,0,0,0-.2,1.9-.5,5.6.2,9.7.6-.5,1.2-.9,1.8-1.3.3-.2.5-.3.8-.5.3-.2.6-.3,1-.4,0,0,.1,0,.2,0,.6-.2,1.2-.4,1.8-.5,1.6-.3,3,0,4,.3,0,0,.1.1.1.2s-.1.2-.2.2c-1.4-.2-2.7,0-4,.3-.6.2-1.2.4-1.8.7-.4.2-.8.4-1.1.6-.3.2-.5.3-.8.5-.6.4-1.2.9-1.8,1.4.7.6,1.3,1.1,1.8,1.6.3.3.6.5.8.7.4.4.8.7,1.1.9.1,0,.3.2.4.2.2-.3.6-.5,1-.4.2,0,.3.1.4.2.1.1.2.3.3.5,0,.3,0,.7-.2.8,0,0,0,0,0,0-.5.5-1.1.4-1.8,0-.4-.2-.7-.5-1.1-.8-.3-.2-.5-.5-.8-.7-.7-.6-1.4-1.4-2.3-2.1-.1-.1-.3-.3-.4-.4-.2.1-.3.3-.4.4-.8.8-1.6,1.5-2.3,2.1-.3.3-.6.5-.8.7-.4.3-.8.6-1.1.8-.7.4-1.3.4-1.8,0,0,0,0,0,0,0-.1-.1-.3-.5-.2-.8,0-.2.1-.3.3-.5.1-.1.3-.2.4-.2.4,0,.8,0,1,.4.1,0,.3-.1.4-.2.3-.2.7-.5,1.1-.9.3-.2.5-.5.8-.7.6-.5,1.2-1.1,1.8-1.6-.6-.5-1.2-.9-1.8-1.4-.3-.2-.5-.4-.8-.5-.4-.2-.7-.4-1.1-.6-.6-.3-1.2-.5-1.8-.7-1.2-.4-2.5-.5-4-.3-.1,0-.2,0-.2-.2s0-.2.1-.2"/>
          <rect class="st1" x="642.4" y="516.1" width=".6" height="22.7"/>
        </g>
        <g>
          <path class="st1" d="M649.7,525.9c.5.4,1.3.5,2,.5,1,0,1.6-.3,2-.7.4-.4.7-1.1.7-1.9v-4.5h-1.1v4.5c0,.5-.1.9-.4,1.2-.3.3-.6.4-1.2.5-.5,0-1.1,0-1.4-.5-.2-.3-.4-.7-.4-1.2s0-.8,0-1.2c0-.4.1-.7.3-1h-1c-.1.3-.3.7-.3,1.1s-.1.8-.1,1.2,0,.9.2,1.3c.2.4.4.7.7.9Z"/>
          <path class="st1" d="M651.5,518.9c.2,0,.3,0,.4-.2.1-.1.2-.3.2-.5s0-.4-.2-.5c-.1-.1-.3-.2-.4-.2s-.3,0-.4.2c-.1.1-.2.3-.2.5s0,.4.2.5c.1.1.3.2.4.2Z"/>
          <path class="st1" d="M659.7,525.7c.4-.4.6-1,.6-1.7v-5.1h-1.4c-.6,0-1.1.1-1.5.3-.4.2-.8.5-1,.9-.2.4-.4.9-.4,1.4s.2,1.3.6,1.7c.4.4,1,.6,1.7.6h1v.2c0,.4-.1.7-.4.9-.2.2-.6.4-1,.4s-.5,0-.8-.1c-.2,0-.5-.2-.7-.3l-.5.8c.3.2.6.3.9.4.3,0,.7.1,1.1.1.8,0,1.4-.2,1.8-.6ZM658.4,522.9c-.4,0-.7-.1-1-.3-.2-.2-.3-.6-.3-1.1s.2-.9.5-1.2c.3-.3.7-.4,1.3-.4h.4v3.1h-.9Z"/>
          <path class="st1" d="M664.1,518c.2,0,.4,0,.5,0,.2,0,.3,0,.5,0v-.5c0,0-.1,0-.2,0,0,0-.2,0-.3,0-.1,0-.2,0-.3,0h-.2c0,0-.2,0-.2-.2,0,0,0-.2,0-.3s0-.3.1-.4c0,0,.2-.1.4-.1s.2,0,.3,0c0,0,.2,0,.2.1l.2-.5c-.2-.1-.4-.2-.7-.2s-.6,0-.8.2c-.2.2-.3.4-.3.7s0,.3.1.4c0,.1.2.2.3.3h-.5v.6c.1,0,.3,0,.5,0,.2,0,.4,0,.6,0Z"/>
          <path class="st1" d="M674.8,518c.2,0,.3,0,.4-.2.1-.1.2-.3.2-.5s0-.4-.2-.5c-.1-.1-.3-.2-.4-.2s-.3,0-.4.2c-.1.1-.2.3-.2.5s0,.4.2.5c.1.1.3.2.4.2Z"/>
          <path class="st1" d="M675.9,517.3c0,.2,0,.4.2.5.1.1.3.2.4.2s.3,0,.4-.2c.1-.1.2-.3.2-.5s0-.4-.2-.5c-.1-.1-.3-.2-.4-.2s-.3,0-.4.2c-.1.1-.2.3-.2.5Z"/>
          <path class="st1" d="M675.7,516.5c.1,0,.3,0,.4-.1.1,0,.2-.2.2-.4s0-.3-.2-.4c-.1,0-.2-.1-.4-.1s-.3,0-.4.1c-.1,0-.2.2-.2.4s0,.4.2.4c.1,0,.2.1.4.1Z"/>
          <path class="st1" d="M683.5,518.9h-1.1v4h-3.2v-4h-1.1v4h-.6c-.3,0-.5,0-.7-.2-.2-.1-.4-.3-.5-.6,0,0,0-.1,0-.2,0,0,0-.1,0-.2v-2.1h-1.1v2.1c0,.4,0,.7-.3.9-.2.2-.4.3-.8.3h-1v-3.2h-1.1v3.2h-5.7v-4h-1.4c-.6,0-1.1.1-1.5.3-.4.2-.8.5-1,.9-.2.4-.4.9-.4,1.4s0,.9.3,1.3c.2.3.4.6.8.8.3.2.7.3,1.2.3h1v.3c0,.4-.1.7-.4.9-.2.2-.6.3-1,.3s-.5,0-.8-.1c-.2,0-.5-.2-.7-.3l-.5.8c.3.2.6.3.9.4.3,0,.7.1,1.1.1s1,0,1.3-.3c.4-.2.6-.4.8-.8.2-.3.3-.7.3-1.2v-.2h8c.4,0,.7,0,.9-.2.3-.1.5-.3.6-.5.3.3.5.5.8.6.3.1.5.2.8.2h6v-5ZM665.2,522.9h-.9c-.4,0-.7-.1-1-.3-.2-.2-.3-.6-.3-1.1s.2-.9.5-1.2c.3-.3.7-.4,1.3-.4h.4v3.1Z"/>
          <path class="st1" d="M682.4,524.9c-.1.1-.2.3-.2.5s0,.4.2.5c.1.1.3.2.4.2s.3,0,.4-.2c.1-.1.2-.3.2-.5s0-.4-.2-.5c-.1-.1-.3-.2-.5-.2s-.3,0-.4.2Z"/>
          <path class="st1" d="M688.7,517.5c.2,0,.3,0,.4-.2.1-.1.2-.3.2-.5s0-.4-.2-.5c-.1-.1-.3-.2-.4-.2s-.3,0-.4.2c-.1.1-.2.3-.2.5s0,.4.2.5c.1.1.3.2.4.2Z"/>
          <path class="st1" d="M687.8,523.6c.4.2.9.3,1.5.3h6.7v-5h-1.1v4h-3.8v-4h-1.6c-.6,0-1.1.1-1.5.3-.4.2-.8.5-1,.9-.2.4-.4.8-.4,1.4s.1.9.3,1.3c.2.4.5.6.9.8ZM688.1,520.3c.3-.3.7-.4,1.3-.4h.5v3.1h-.7c-.5,0-.9-.1-1.2-.4-.3-.3-.4-.6-.4-1.1s.2-.9.5-1.2Z"/>
          <path class="st1" d="M690.4,517.5c.2,0,.3,0,.4-.2.1-.1.2-.3.2-.5s0-.4-.2-.5c-.1-.1-.3-.2-.4-.2s-.3,0-.4.2c-.1.1-.2.3-.2.5s0,.4.2.5c.1.1.3.2.4.2Z"/>
          <path class="st1" d="M693.2,524.9c-.1.1-.2.3-.2.5s0,.4.2.5c.1.1.3.2.4.2s.3,0,.4-.2c.1-.1.2-.3.2-.5s0-.4-.2-.5c-.1-.1-.3-.2-.4-.2s-.3,0-.4.2Z"/>
          <path class="st1" d="M695.4,524.8c-.2,0-.3,0-.4.2-.1.1-.2.3-.2.5s0,.4.2.5c.1.1.3.2.4.2s.3,0,.4-.2c.1-.1.2-.3.2-.5s0-.4-.2-.5c-.1-.1-.3-.2-.5-.2Z"/>
          <path class="st1" d="M706.1,518c.2,0,.3,0,.4-.2.1-.1.2-.3.2-.5s0-.4-.2-.5c-.1-.1-.3-.2-.5-.2s-.3,0-.4.2c-.1.1-.2.3-.2.5s0,.4.2.5c.1.1.3.2.4.2Z"/>
          <path class="st1" d="M721.1,523.9v-7.7h-1.1v6.8h-2.5v-6.8h-1.1v6.8h-3c-.2,0-.4,0-.5,0-.2,0-.3,0-.5-.2.4-.2.7-.5,1-.9.3-.4.5-.8.6-1.2.1-.4.2-.9.2-1.4-.3-.2-.7-.4-1.2-.5-.4-.1-.9-.2-1.3-.2s-.6,0-1,.1c-.3,0-.6.2-.9.4-.3.2-.6.4-.8.6,0,.4.2.8.4,1.2.2.4.4.8.7,1.1.1.2.3.3.4.5.1.1.2.2.4.3-.1,0-.3.1-.5.2-.2,0-.4,0-.6,0h-2.8v-4h-1.1v4h-6.5v-6.8h-1.1v7.7h11.6c.3,0,.6,0,1-.1.3,0,.6-.2.9-.4.3.2.6.3.9.4.3,0,.6.1.9.1h7.8ZM711.4,522.2c-.2-.2-.4-.4-.6-.6-.2-.2-.4-.5-.5-.8-.1-.3-.2-.6-.3-.8.2-.1.3-.2.5-.3.2,0,.4-.1.5-.2.2,0,.4,0,.5,0,.3,0,.5,0,.7,0,.2,0,.4.1.7.2,0,.5-.2,1-.4,1.4-.2.4-.6.7-1.1,1.1Z"/>
          <path class="st1" d="M726.3,517.5c.2,0,.3,0,.4-.2.1-.1.2-.3.2-.5s0-.4-.2-.5c-.1-.1-.3-.2-.4-.2s-.3,0-.4.2c-.1.1-.2.3-.2.5s0,.4.2.5c.1.1.3.2.4.2Z"/>
          <path class="st1" d="M728.1,517.5c.2,0,.3,0,.4-.2.1-.1.2-.3.2-.5s0-.4-.2-.5c-.1-.1-.3-.2-.4-.2s-.3,0-.4.2c-.1.1-.2.3-.2.5s0,.4.2.5c.1.1.3.2.4.2Z"/>
          <path class="st1" d="M756,522.9h-4.2c-.2,0-.4,0-.5,0-.2,0-.3,0-.5-.2.4-.2.7-.5,1-.9.3-.4.5-.8.6-1.2.1-.4.2-.9.2-1.4-.3-.2-.7-.4-1.2-.5-.4-.1-.9-.2-1.3-.2s-.6,0-1,.1c-.3,0-.6.2-.9.4-.3.2-.6.4-.8.6,0,.4.2.8.4,1.2.2.4.4.8.7,1.1.1.2.3.3.4.5.1.1.2.2.4.3-.1,0-.3.1-.5.2-.2,0-.4,0-.6,0h-5.3v-6.8h-1.1v7.7h6.4c.3,0,.6,0,1-.1.3,0,.6-.2.9-.4.3.2.6.3.9.4.3,0,.6.1.9.1h5.3v-7.7h-1.1v6.8ZM750,522.2c-.2-.2-.4-.4-.6-.6-.2-.2-.4-.5-.5-.8-.1-.3-.2-.6-.3-.8.2-.1.3-.2.5-.3.2,0,.4-.1.5-.2.2,0,.4,0,.5,0,.3,0,.5,0,.7,0,.2,0,.4.1.7.2,0,.5-.2,1-.4,1.4-.2.4-.6.7-1.1,1.1Z"/>
          <rect class="st1" x="758.8" y="516.1" width="1.1" height="7.7"/>
          <path class="st1" d="M764.2,523.6c.4.2.9.3,1.5.3h23.5v-7.7h-1.1v6.8h-2.5v-2.1c0-1.1-.3-2-.9-2.6-.6-.6-1.5-.9-2.7-.9s-.6,0-.8,0c-.3,0-.5,0-.8.1-.3,0-.5.1-.7.2l.3.9c.3-.1.7-.2,1-.2.3,0,.7,0,1.1,0,.9,0,1.5.2,1.9.7.4.4.6,1.1.6,2v2h-1.4v-1.4c0-.5,0-.9-.2-1.2-.2-.3-.4-.6-.7-.7-.3-.2-.7-.3-1.1-.3s-.8,0-1.1.3c-.3.2-.6.4-.8.8-.2.3-.3.7-.3,1.1s0,.6.2.8c.1.2.3.4.5.6h-2.9v-4h-1.1v4h-3.3v-4h-1.1v4h-3.7v-4h-1.1s-.5,0-.5,0c-.6,0-1.1.1-1.5.3-.4.2-.8.5-1,.9-.2.4-.4.8-.4,1.4s.1.9.3,1.3.5.6.9.8ZM780.3,520.7c.2-.2.4-.3.7-.3s.6.1.8.3c.2.2.3.5.3,1v1.3h-.7c-.3,0-.5,0-.7-.2-.2-.1-.4-.3-.5-.5-.1-.2-.2-.5-.2-.8s0-.6.3-.8ZM764.6,520.3c.3-.3.7-.4,1.3-.4h.5v3.1h-.7c-.5,0-.9-.1-1.2-.4-.3-.3-.4-.6-.4-1.1s.2-.9.5-1.2Z"/>
          <path class="st1" d="M766.9,517.5c.2,0,.3,0,.4-.2.1-.1.2-.3.2-.5s0-.4-.2-.5c-.1-.1-.3-.2-.4-.2s-.3,0-.4.2c-.1.1-.2.3-.2.5s0,.4.2.5c.1.1.3.2.4.2Z"/>
          <path class="st1" d="M765.1,517.5c.2,0,.3,0,.4-.2.1-.1.2-.3.2-.5s0-.4-.2-.5c-.1-.1-.3-.2-.4-.2s-.3,0-.4.2c-.1.1-.2.3-.2.5s0,.4.2.5c.1.1.3.2.4.2Z"/>
          <path class="st1" d="M771.6,517.9c.2,0,.4,0,.5,0,.2,0,.3,0,.5,0v-.5c0,0-.1,0-.2,0,0,0-.2,0-.3,0-.1,0-.2,0-.3,0h-.2c0,0-.2,0-.2-.1,0,0,0-.2,0-.3,0-.2,0-.3.1-.4,0,0,.2-.1.4-.1s.2,0,.3,0c0,0,.2,0,.2,0l.2-.5c-.2-.1-.4-.2-.7-.2s-.6,0-.8.2c-.2.2-.3.4-.3.7s0,.3.1.4c0,.1.2.2.3.3h-.5v.6c.1,0,.3,0,.5,0,.2,0,.4,0,.6,0Z"/>
          <path class="st1" d="M776.5,524.9c-.1.1-.2.3-.2.5s0,.4.2.5c.1.1.3.2.4.2s.3,0,.4-.2c.1-.1.2-.3.2-.5s0-.4-.2-.5c-.1-.1-.3-.2-.4-.2s-.3,0-.4.2Z"/>
          <path class="st1" d="M774.8,524.9c-.1.1-.2.3-.2.5s0,.4.2.5c.1.1.3.2.4.2s.3,0,.4-.2c.1-.1.2-.3.2-.5s0-.4-.2-.5c-.1-.1-.3-.2-.4-.2s-.3,0-.4.2Z"/>
          <rect class="st1" x="790.9" y="516.1" width="1.1" height="7.7"/>
          <path class="st1" d="M651.2,539.8c-.2,0-.3,0-.4.2-.1.1-.2.3-.2.5s0,.4.2.5c.1.1.3.2.4.2s.3,0,.4-.2c.1-.1.2-.3.2-.5s0-.4-.2-.5c-.1-.1-.3-.2-.4-.2Z"/>
          <path class="st1" d="M652.9,539.8c-.2,0-.3,0-.4.2-.1.1-.2.3-.2.5s0,.4.2.5c.1.1.3.2.4.2s.3,0,.4-.2c.1-.1.2-.3.2-.5s0-.4-.2-.5c-.1-.1-.3-.2-.4-.2Z"/>
          <path class="st1" d="M667.2,537.4c-.2,0-.3,0-.4.2-.1.1-.2.3-.2.5s0,.4.2.5c.1.1.3.2.4.2s.3,0,.4-.2c.1-.1.2-.3.2-.5s0-.4-.2-.5c-.1-.1-.3-.2-.5-.2Z"/>
          <path class="st1" d="M671.3,530.6c.2,0,.3,0,.4-.2.1-.1.2-.3.2-.5s0-.4-.2-.5c-.1-.1-.3-.2-.5-.2s-.3,0-.4.2c-.1.1-.2.3-.2.5s0,.4.2.5c.1.1.3.2.4.2Z"/>
          <path class="st1" d="M674.5,535.6h-2.5v-4h-1.1v4h-3v-4h-1.1v4h-4.9v-4h-1.4c-.6,0-1.1.1-1.5.3-.4.2-.8.5-1,.9-.2.4-.4.9-.4,1.4s0,.9.3,1.3c.2.3.4.6.8.8.3.2.7.3,1.2.3h1v.3c0,.4-.1.7-.4.9-.2.2-.6.3-1,.3s-.5,0-.8-.1c-.2,0-.5-.2-.7-.3l-.5.8c.3.2.6.3.9.4.3,0,.7.1,1.1.1s1,0,1.3-.3c.4-.2.6-.4.8-.8.2-.3.3-.7.3-1.2v-.2h13.7v-7.7h-1.1v6.8ZM660.8,535.6h-.9c-.4,0-.7-.1-1-.3-.2-.2-.3-.6-.3-1.1s.2-.9.5-1.2c.3-.3.7-.4,1.3-.4h.4v3.1Z"/>
          <rect class="st1" x="677.3" y="528.8" width="1.1" height="7.7"/>
          <rect class="st1" x="715.5" y="528.8" width="1.1" height="7.7"/>
          <path class="st1" d="M719.8,531.8c-.4.2-.8.5-1,.9-.2.4-.4.9-.4,1.4s.2,1.3.6,1.7c.4.4,1,.6,1.7.6h1v.2c0,.4-.1.7-.4.9-.2.2-.6.4-1,.4s-.5,0-.8-.1c-.2,0-.5-.2-.7-.3l-.5.8c.3.2.6.3.9.4.3,0,.7.1,1.1.1.8,0,1.4-.2,1.8-.6.4-.4.6-1,.6-1.7v-5.1h-1.4c-.6,0-1.1.1-1.5.3ZM721.6,535.6h-.9c-.4,0-.7-.1-1-.3-.2-.2-.3-.6-.3-1.1s.2-.9.5-1.2c.3-.3.7-.4,1.3-.4h.4v3.1Z"/>
          <rect class="st1" x="733.8" y="528.8" width="1.1" height="7.7"/>
          <path class="st1" d="M751.2,535.6h-2.8c-.1-.1-.2-.2-.3-.4,0-.2-.2-.4-.2-.7,0-.3-.1-.6-.2-.9,0-.4-.1-.7-.2-.9,0-.2-.2-.4-.4-.6-.1-.2-.3-.3-.5-.4-.1,0-.3-.1-.5-.1s-.4,0-.6,0c-.3,0-.7,0-1,.1-.3,0-.6.2-.9.4l.4.8c.3-.1.5-.2.7-.3.2,0,.5,0,.7,0s.3,0,.5,0c.1,0,.3.1.4.2,0,.1.2.3.2.5,0,.2.1.4.2.7,0,.3.1.6.2.8,0,.2.1.4.2.6,0,.2.2.3.2.4h-8.4v-4h-1.1v5.2c0,.4,0,.7-.3.9-.2.2-.4.4-.7.4s-.3,0-.4,0c-.1,0-.3,0-.4-.2l-.4.8c.2.1.5.2.7.3.2,0,.4,0,.7,0,.4,0,.7,0,1-.3.3-.2.5-.4.7-.8.2-.3.2-.7.2-1.2v-.2h13.5v-7.7h-1.1v6.8Z"/>
          <rect class="st1" x="754" y="528.8" width="1.1" height="7.7"/>
          <path class="st1" d="M766.8,537.4c-.2,0-.3,0-.4.2-.1.1-.2.3-.2.5s0,.4.2.5c.1.1.3.2.4.2s.3,0,.4-.2c.1-.1.2-.3.2-.5s0-.4-.2-.5c-.1-.1-.3-.2-.4-.2Z"/>
          <path class="st1" d="M690.9,537.4c-.2,0-.3,0-.4.2-.1.1-.2.3-.2.5s0,.4.2.5c.1.1.3.2.4.2s.3,0,.4-.2c.1-.1.2-.3.2-.5s0-.4-.2-.5c-.1-.1-.3-.2-.4-.2Z"/>
          <rect class="st1" x="790.9" y="528.8" width="1.1" height="7.7"/>
          <path class="st1" d="M729.7,531.4c-1,0-2.2.7-2.2,2.3v1.6c-.8,0-1.7.2-1.7,1.6v2.6h1.1v-2.5c0-.3,0-.5.2-.6.1-.1.3-.2.6-.2h1.8c1.9,0,2.5-1.5,2.5-2.6s-.7-2.3-2.2-2.3ZM729.3,535.4h-.8v-1.4c0-.7.3-1.6,1.1-1.6s1.1.3,1.1,1.5-.7,1.5-1.5,1.5Z"/>
          <path class="st1" d="M736.8,523.9c1.9,0,2.5-1.5,2.5-2.6s0-.8-.3-1.2c-.2-.3-.5-.6-.8-.8-.2,0-.3-.2-.5-.2-.2,0-.4,0-.6,0-1.1,0-2.2.7-2.2,2.3v1.6h-6.2v-4h-1.1s-.5,0-.5,0c-.6,0-1.1.1-1.5.3-.4.2-.8.5-1,.9-.2.4-.4.8-.4,1.4s.1.9.3,1.3c.2.4.5.6.9.8.4.2.9.3,1.5.3h9.9ZM735.9,521.5c0-.7.3-1.6,1.1-1.6s.6.1.8.4c.2.3.3.6.3,1s0,.6-.2.9c-.1.3-.3.4-.5.6-.2.1-.5.2-.8.2h-.8v-1.4ZM727.6,522.9h-.7c-.5,0-.9-.1-1.2-.4-.3-.3-.4-.6-.4-1.1s.2-.9.5-1.2c.3-.3.7-.4,1.3-.4h.5v3.1Z"/>
          <path class="st1" d="M788.1,535.6h-1.6c-.3,0-.5,0-.7-.1-.2,0-.3-.2-.5-.4.1-.4.2-.8.2-1.1s0-.8-.3-1.2c-.2-.3-.5-.6-.8-.8-.2,0-.3-.2-.5-.2-.2,0-.4,0-.6,0-1.1,0-2.2.7-2.2,2.3v1.6h-2.2v-4h-1.1v4h-.6c-.3,0-.5,0-.7-.2-.2-.1-.4-.3-.5-.6,0,0,0-.1,0-.2v-2.9h-1.1v2.6c0,.4,0,.7-.3.9-.2.2-.4.3-.8.3h-1v-3.8h-1.1v3.8h-2c-.1-.1-.2-.2-.3-.4,0-.2-.2-.4-.2-.7,0-.3-.1-.6-.2-.9,0-.4-.1-.7-.2-.9,0-.2-.2-.4-.4-.6-.2-.2-.3-.3-.5-.4-.1,0-.3-.1-.5-.2-.2,0-.4,0-.6,0-.3,0-.7,0-1,.1-.3,0-.6.2-.9.4l.4.8c.3-.1.5-.2.7-.3.2,0,.5-.1.7-.1s.3,0,.5,0c.1,0,.3.1.4.3,0,.1.2.3.2.5,0,.2.1.4.2.7,0,.3.1.6.2.8,0,.2.1.4.2.6,0,.2.2.3.2.4h-5.8v-1.1c0-.5-.1-1-.4-1.4-.2-.4-.6-.7-1-.9-.4-.2-.9-.3-1.5-.3h-1.5v.9h1.4c.6,0,1,.1,1.3.4.3.3.5.7.5,1.2v1.1h-3.7v.9h15.9c.3,0,.7,0,.9-.2.3-.1.5-.3.6-.5.3.3.5.5.8.6s.5.2.8.2h5.9c.8,0,1.4-.3,1.8-.7.2.3.5.4.7.5.2,0,.5.1.9.2h2.8v-7.7h-1.1v6.8ZM784.3,534.8c-.1.3-.3.4-.5.6-.2.1-.5.2-.8.2h-.8v-1.4c0-.7.3-1.6,1.1-1.6s.6.1.8.4c.2.3.3.6.3,1s0,.6-.2.9Z"/>
          <path class="st1" d="M712.7,535.6h-1.9c-.3,0-.5,0-.7-.1-.2,0-.3-.2-.5-.4.1-.4.2-.8.2-1.1s0-.8-.3-1.2c-.2-.3-.5-.6-.8-.8-.2,0-.3-.2-.5-.2-.2,0-.4,0-.6,0-1.1,0-2.2.7-2.2,2.3v1.6h-2.2v-4h-1.1v4h-.6c-.3,0-.5,0-.7-.2-.2-.1-.4-.3-.5-.6,0,0,0-.1,0-.2v-2.9h-1.1v2.6c0,.4,0,.7-.3.9-.2.2-.4.3-.8.3h-1v-3.8h-1.1v3.8h-3.1c-.1-.1-.2-.2-.3-.4,0-.2-.2-.4-.2-.7,0-.3-.1-.6-.2-.9,0-.4-.1-.7-.2-.9,0-.2-.2-.4-.4-.6-.2-.2-.3-.3-.5-.4-.1,0-.3-.1-.5-.2-.2,0-.4,0-.6,0-.3,0-.7,0-1,.1-.3,0-.6.2-.9.4l.4.8c.3-.1.5-.2.7-.3.2,0,.5-.1.7-.1s.3,0,.5,0c.1,0,.3.1.4.3,0,.1.2.3.2.5,0,.2.1.4.2.7,0,.3.1.6.2.8,0,.2.1.4.2.6,0,.2.2.3.2.4h-5.7v-1.1c0-.5-.1-1-.4-1.4-.2-.4-.6-.7-1-.9-.4-.2-.9-.3-1.5-.3h-1.5v.9h1.4c.6,0,1,.1,1.3.4.3.3.5.7.5,1.2v1.1h-3.7v.9h17c.3,0,.7,0,.9-.2.3-.1.5-.3.6-.5.3.3.5.5.8.6s.5.2.8.2h5.9c.8,0,1.4-.3,1.8-.7.2.3.5.4.7.5.2,0,.5.1.9.2h3.1v-7.7h-1.1v6.8ZM708.6,534.8c-.1.3-.3.4-.5.6-.2.1-.5.2-.8.2h-.8v-1.4c0-.7.3-1.6,1.1-1.6s.6.1.8.4c.2.3.3.6.3,1s0,.6-.2.9Z"/>
          <path class="st1" d="M652.6,532.8c-.3.4-.6,1-.5,1.5,0,.5.4.9.8,1.2.4.3.9.5,1.3.8.3.3.7.7.3,1.1-.2.3-.7.4-1,.5-.5,0-2.1,0-2.4,0-.5,0-.9-.3-1.2-.7-.2-.5-.1-1.3,0-1.8,0-.3.1-.5.2-.8h-1c-.4,1-.5,2.2,0,3.1.3.7,1,1.1,2,1.1h2.1c.9,0,2.3-.2,2.6-1.2.3-.7,0-1.5-.6-2-.4-.4-1-.7-1.4-1-.3-.2-.5-.5-.3-.9.2-.5.5-.8.9-1,.5-.3,1.1-.3,1.6,0l.5-.9c-.2-.2-.5-.3-.8-.4-1.1-.3-2.2.4-2.8,1.3Z"/>
        </g>
      </g>
    </g>
  </g>
</svg>